<svg xmlns="http://www.w3.org/2000/svg" xmlns:xlink="http://www.w3.org/1999/xlink" id="Layer_1" viewBox="0 0 343 119.5">
    <style>
        .st0{fill:#f3f1f0}.st1{fill:#d0b784}.st2{opacity:.25}.st3{clip-path:url(#SVGID_2_);fill:url(#SVGID_3_)}.st4{clip-path:url(#SVGID_5_);fill:url(#SVGID_6_)}
    </style>
    <path d="M17.7 68.3c-1.3 1-2.9 1.7-5.4 1.7-1.5 0-3.1-.2-4.6-.6V58.5c.4-.2.8-.2 1.5-.2h2.1c1.9 0 3.6.2 4.8.8 1.3.6 2.1 1.5 2.7 2.3.6.8.8 1.9.8 2.9 0 1.7-.6 3-1.9 4M7.9 56.6V46.4c1-.2 2.3-.4 3.6-.4 2.5 0 4.4.6 5.6 1.7 1.3 1 1.9 2.5 1.9 4 0 .8-.4 1.9-.8 2.7-.6.8-1.3 1.5-2.3 1.9-1 .4-2.5.6-4.4.6H9.4c-.6 0-1.3-.2-1.7-.2h.2zm10.3 1.1c1.7-.4 2.9-1.3 3.8-2.7.8-1 1.3-2.3 1.3-3.5 0-1.7-.6-2.9-1.7-4.2-1-1.3-2.5-2.1-4.6-2.5-1.3-.2-3.1-.4-5.2-.4H0v.8h1c1 0 1.7.2 2.3.8.5.4.7 1.4.7 3.1v17.3c0 1.5-.2 2.5-.4 2.9-.6.6-1.5 1-2.5 1H0v.8h12.7c2.9 0 5.2-.2 6.7-.8 1.5-.6 2.7-1.5 3.5-2.7.8-1 1.3-2.5 1.3-3.8 0-1.7-.6-3.1-1.9-4.4-.8-.7-2.3-1.3-4.1-1.7M40.2 62.5H33l3.5-8.5 3.7 8.5zm9.3 7.7c-.8-.2-1.6-.4-2-.8-.3-.3-1-1.3-1.6-2.9l-8-18.9H37l-8 18.7c-.6 1.5-1.2 2.6-1.8 3.3-.4.2-.8.4-1.8.6h-.1v1h7.5v-1h-.2c-.8 0-1.4-.1-2-.4-.2-.2-.3-.4-.3-.7 0-.4.2-1 .6-1.8l1.4-3.4h8.5l1.2 2.8c.5 1.1.6 1.9.6 2.2 0 .4 0 .7-.3.9-.4.2-1 .4-1.8.4h-.2v1h9.3v-1h-.1zM65.8 60.4c-.3-.2-.7-.4-1.2-.7-.8-.5-1.9-1.1-3.1-1.8-3-1.6-4.4-2.5-4.9-3.3-.4-.6-.6-1.2-.6-1.8 0-1 .3-1.7 1-2.2.8-.6 1.6-1 2.8-1 .9 0 1.6.3 2.4.6.1.1.3.1.4.2.9.4 1.8 1.1 2.2 2 .5.9.8 2.2 1 3.5v.2h1v-8.3h-1.2v.2c0 .6-.2.7-.4.9-.2.2-.3.2-.5.2-.1 0-.3-.1-.6-.2-.2-.1-.4-.1-.6-.2-1.1-.6-2.4-.9-3.8-.9-2.2 0-3.8.6-4.9 1.7-1.3 1.3-1.9 2.7-1.9 4.3 0 .9.2 1.7.7 2.6.6.9 1.2 1.6 1.9 2.1.8.6 2.2 1.4 4.2 2.5.4.2.8.5 1.2.7 1.2.6 2 1.1 2.3 1.4l.5.5c.4.4.8.7.9 1.1 0 .1.1.3.1.4.2.4.3.8.3 1.2 0 .7-.4 1.7-1.2 2.4-.9.7-1.9 1-3.2 1-1.3 0-2.3-.2-3.2-.8-.8-.5-1.3-1.1-1.8-1.6l-.5-.5c-.6-.6-1-1.8-1.2-3.4v-.2h-1v8.1H54v-.1c.1-.2.1-.3.1-.5.1-.3.1-.4.2-.5.2-.2.3-.2.5-.2s.9.2 2 .6c1 .4 1.7.6 2.1.6.6.2 1.3.2 1.9.2 2.2 0 4.1-.7 5.3-1.9 1.4-1.2 2.2-2.7 2.2-4.5 0-.9-.2-1.7-.6-2.6-.3-.6-.9-1.2-1.9-2M85.5 60.4c-.3-.2-.7-.4-1.2-.7-.8-.5-1.9-1.1-3.1-1.8-3-1.6-4.4-2.5-4.9-3.3-.4-.6-.6-1.2-.6-1.8 0-1 .3-1.7 1-2.2.8-.6 1.6-1 2.8-1 .9 0 1.6.3 2.4.6.1.1.3.1.5.2.9.4 1.8 1.1 2.2 2 .5.9.8 2.2 1 3.5v.2h1v-8.3h-1v.2c0 .5-.2.7-.4.9-.2.2-.3.2-.5.2-.1 0-.3-.1-.6-.2-.2-.1-.4-.1-.6-.2-1.2-.6-2.4-.9-3.8-.9-2.2 0-3.8.6-4.9 1.7-1.3 1.3-1.9 2.7-1.9 4.3 0 .9.2 1.7.7 2.6.6.9 1.3 1.6 1.9 2.1.8.6 2.2 1.4 4.2 2.5.4.2.8.5 1.2.7 1.2.6 2 1.1 2.3 1.4l.5.5c.4.4.8.7.9 1.1 0 .1.1.3.1.4.2.4.3.8.3 1.2 0 .7-.4 1.7-1.2 2.4-.9.7-1.9 1-3.2 1-1.3 0-2.3-.2-3.2-.8-.8-.5-1.3-1-1.8-1.6l-.5-.5c-.6-.6-1-1.8-1.2-3.4v-.2h-1v8.1h.9v-.1c.1-.2.1-.3.1-.5.1-.3.1-.4.2-.5.2-.2.3-.2.5-.2s.9.2 2 .6c1 .4 1.7.6 2.1.6.6.2 1.3.2 1.9.2 2.2 0 4.1-.7 5.3-1.9 1.4-1.2 2.2-2.7 2.2-4.5 0-.9-.2-1.7-.6-2.6-.5-.6-1-1.2-2-2M109.6 65.7c-.6 1.5-1.5 2.5-2.1 3.1-.4.6-1 .8-1.6 1-.4.2-1.4.2-2.6.2h-4c-.6 0-1 0-1.1-.2l-.1-.1H98c-.1 0-.2-.1-.2-.2v-.1l-.1-.1c-.2-.2-.2-.9-.2-1.8v-7.3h4.8c.8 0 1.6.2 2 .4.6.2.7.4.9.7.1.1.1.5.2.9 0 .3.1.7.2 1.1v.1h1v-8.3h-1v.2c-.2 1.2-.4 2.2-1 2.6-.4.4-1.2.6-2.4.6h-4.8v-8.6h6.1c1 0 1.8 0 2.2.2.5.2.9.5 1.1 1 .4.4.6 1.2.8 2.4v.2h.8l-.2-5.4H90.6v1.2h1c.9 0 1.5.2 1.9.6.1.3.4 1.1.4 2.6v14.6c0 .6-.1 1.1-.1 1.5 0 .2-.1.4-.1.6 0 .3-.1.5-.5.7-.4.2-.8.4-1.4.4h-1v1h17.9l1.9-5.8.1-.2h-1l-.1.2zM113 48.5l-.2 5.6h1V54c.2-1.1.4-1.9.8-2.4.4-.7.8-1 1.4-1.2.4-.2 1.2-.2 2.2-.2h2.5v17.1c0 1.5-.3 2.2-.4 2.4-.4.5-.9.8-1.9.8h-1v1h10v-1h-1c-.8 0-1.4-.2-1.8-.6-.1-.1-.4-.9-.4-2.4V50.1h2.9c1 0 1.6.2 2.2.4.6.4 1 .8 1.4 1.4.1.2.2.6.2 1 0 .3.1.7.2 1.1v.1h1l-.2-5.6H113zM260.2 58h.2c.9 0 1.7 0 2.1.2.4.2.7.4.9.9.2.4.2 1.4.2 2.6v7.4c-.9.5-1.7.7-2.5.9-1 .2-1.9.2-2.9.2-1.6 0-3-.4-4.8-1.4-1.5-.8-2.7-2.3-3.8-4.6-.9-1.9-1.4-4.3-1.4-6.7 0-3.1.7-5.8 2.2-7.9 1.9-2.6 4.3-3.8 7.7-3.8 2.4 0 4.3.7 6 2.1 1.1 1.1 2 2.6 2.6 4.6v.1h1.1l-.7-8.5v-.2h-.8v.2c0 .7 0 1.1-.2 1.3-.2.2-.4.2-.6.2-.1 0-.4-.1-.7-.2-.2-.1-.5-.2-.7-.3-.9-.3-1.6-.5-2.3-.7-.4-.1-.8-.2-1.1-.3-.8-.3-1.8-.3-2.7-.3-2.8 0-5 .6-6.9 1.7-2.6 1.5-4.5 3.5-5.7 5.9-1.2 1.9-1.7 4.1-1.7 6.7 0 3.2 1 6.2 3 8.7 2.8 3.3 6.8 4.9 11.8 4.9 1.7 0 3.4 0 4.9-.5 1.5-.2 3-1 4.4-1.7l.1-.1v-8.2c0-1.8.4-2.6.5-2.8.4-.6 1-.9 2-.9h.7v-1.1h-10.6V58zM291.7 60c0 3.6-.7 6-2.1 7.6-1.2 1.6-3 2.4-5.1 2.4-1.8 0-3.4-.8-4.7-2.2-1.5-2.2-2.3-4.9-2.3-8.5 0-3.4.8-6.1 2.3-8 1.3-1.5 2.9-2.2 4.9-2.2 2.3 0 3.7.8 4.7 2.4 1.6 2 2.3 4.7 2.3 8.5M285 47.5c-2.9 0-5.4 1-7.6 3-2.5 2.3-3.8 5.3-3.8 8.9 0 3.5 1 6.3 3.2 8.7 2.1 2.3 4.8 3.4 8.1 3.4 3.2 0 5.8-1.1 8.1-3.4s3.4-5.2 3.4-8.7c0-3.2-1.1-6-3.4-8.5-2.4-2.3-5-3.4-8-3.4M317.2 64.3l-.1.1c-.2.5-.5.9-.7 1.3-.4.7-.7 1.2-.8 1.6-.6.6-1.2 1-1.8 1.2-.8.2-2 .4-3.7.4h-1.7c-1.1 0-1.9-.1-2.3-.2h-.4c-.1 0-.3-.2-.5-.3-.2-.4-.2-1-.2-1.8V52.4c0-1.2 0-2 .2-2.4.1-.1.2-.1.3-.2.2-.1.5-.3.7-.6.4-.4 1.2-.4 2.4-.4h.2v-1h-10.6v1h1c.8 0 1.4.4 1.7.8.2.3.4 1.1.4 2.6v14.6c0 1.5-.3 2.2-.4 2.4-.4.5-.9.8-1.9.8h-1v1h18.1l2-6.4-.9-.3zM338.2 59.5c0 3-.8 5.3-2.5 7.2-1.5 1.7-3.7 2.7-6.3 2.7-1.1 0-2.1 0-3.5-.4h-.1V50.1c.3 0 .5-.1.8-.1 1-.2 1.8-.3 2.6-.3 2.8 0 5 .9 6.6 2.7 1.6 1.6 2.4 4 2.4 7.1m3.1-6.5c-1.5-2-2.8-3.1-4.4-3.8-1.7-.8-4.4-1.3-7.8-1.3h-9.6v1h1c.8 0 1.4.4 1.7.8.2.3.4 1.1.4 2.6v14.6c0 1.5-.3 2.2-.4 2.4-.4.5-.9.8-1.9.8h-1v1h10.8c4.4 0 7.8-1.2 9.9-3.6 1.9-2.2 3-4.9 3-8.1 0-2.9-.6-4.9-1.7-6.4" class="st0"/>
    <path d="M209.6 89.8c1.1.2 2.4.2 3.6-.2 2.3-.8 4.9-.4 6.8 1.1 1.1.8 1.9 2.1 2.1 3.4 0 0-.9.3-1.7-.1-.4-.2-1.3-.9-1.3-.9V95s-.9-.4-1.1-.6c-.5-.4-1.3-2.1-1.3-2.1l-.9 1.9-.8-1.9c-.4.6-.9.8-1.5.9l-.5-1.3s-.8 1.6-1.3 2c-.2.2-.5.2-.8.3-.3.1-1.1.1-1.4.1-7.5-.9-9.4 1.1-9.4 1.1.2-1.5-.1-1.9-.3-3.4l-1.6 3.4s-.1-2.3-.1-3.1c-.1-1.3-1-1.9-1.2-1.9 0 2.1-.6 4-1.5 5.9l-.1-2.5s-.8.1-1.2 1.4c-.4-.4-.5-1.2-.3-1.7.4-.9 1.2-1.6 1.4-2.8.2-.8 0-1.5-.4-2.3-1.8-3.1-1.3-5.6-1.3-5.6l.9 1.1c.8-1.9 1.1-3.9.8-6l.8.4c0-5.3-1.5-8.3-6.7-9.6-.6-.2-1.5-.5-2.1-2l2.1-.4s-.6-1-2.7-1.7c-1.4-.5-5.6-1.1-5.6-1.1.8 0 1.5-.3 1.7-.9 0 0-4.4-.3-6.1-1.6 0 0 .2-.7 1.1-.9.5-.1 1.9 0 1.9 0l-1-1.3c5.5.8 7.9-.6 7.9-.6s-.2-1 .2-1.6c.5-.8 1.5-1 1.5-1l.6 3c.4 0 .8-.5 1-1.9.8 1.3.4 1.5.9 3.1 0 0 .5-.1.8-.7.3-.6.3-.9.3-.9s.6.8.7 1.4c.3 1.2.5 2.2.5 2.2s.5-.5.5-1.8-.2-1.9-.2-1.9c1.1 1.7 2.1 3.6 2.6 5.6l.6-1.7c.4 1.1.4 2.3.4 3.4 0 0 .1 1.1-.2 2.5 0 0 1.6 0 2.3-2.7 0 0-.1.8.2 2.3.1.5.3 1.2.9 1.9l.8-1.1s3.7 3.2 4.9 5.1c1.2 1.8 1.7 3 .8 3.6-.4.2-.7-.2-1.8.1l.7 1.4s-.9.2-1.3 0c-.2-.1.6 2 .6 2s-.7-.5-.9-.6c-.3-.2-.8-.2-.8-.2 1.9 4.3-1 5.9-.1 9.2.2.8 1.1 1.3 1.5 2.1 1.2-1.2 3.2-1.6 5.1-1.2m9.2 12.8s-1.3 1.7-.6 4.5c-3.7-.2-7.1 6.4-7.1 6.4l-1.1 1.7c-.8.8-1.3.8-2.1.2-.3-.3-.6-1-.2-2.1.7-1.9 2-2.5 3.2-3.6.8-.7.9-1.9.8-2.8l-.9 1.3-1.3-.6.2 1.3c-1.1 1.3-2.8 1.9-4.5 1.3-.8-.2-.9-.9-.6-2.1.6-1.3 1.9-2.4 3.4-2.8-.9-.4-1.9-.4-2.8 0 0 0-2.1-.1-1.9-2.4.7-.4 2.2-.4 3.6.8.8.7 1.9 1.5 3 1.7 3.3.6 5.3 0 6.6-1.5-.8-2.3-.9-4.5-.4-7 .9.2 2.1 1.5 3.2 3.9l-1.1-.2c-.1.1-.2 1.2.6 2m-33.7-24.1s-.5.1-.8-1c-.1-.6-.6-.9-.6-.9s-.2.4-.2.8c0 .3.1.8.1.8-.8-1.7-2.1-3-3.6-3.9-1.1-.6-2-1.4-3-2.3 0 0-.2.7-.2 1 0 .3.1 1 .1 1s-.3 0-.7-.2c-.2-.1-1.1-.5-1.1-.5s.1 1.1.1 1.4c.1.9-.1 1.2-.1 1.2s-.1 0-.4-.4c-.4-.5-.8-.7-.8-.7v1.4c0 .4.1 1.5.1 1.5l-1.1-1.1s-.5.8-.2 3.4c.2 1.7 1.7 3 1.6 3.1 0 0-.8-.2-2.5-1.7l-1.1-1.1c-.2 1 0 2.6.3 3.7l-1.3-1.5c0 1.3-.4 2.8-.9 4.1l-.8-.8c-.4-.4-.8-.7-1.6-.8 0 0 .2 1.3.2 1.4-.1.2-.9-.9-1.8-1-.9-.2-1.9.1-3.8.4-.4.1-1-.1-1.4-.4l-1.5-1.3s-.1.4 0 1.1c.1.6.4 1.1.4 1.1l-2-1.6c-.2 2.3-.6 3.6-1.3 3.9v-1.3s-.4.1-.6 0c-.2-.1-.4-.4 0-.8 1-1 1.1-1.9.7-3.6-.6 1.7-1.3 2.6-2.3 2.4 0 0-.1-.4-.5-1.2-.4-.7-.8-.6-.8-.6s.1 1.4 0 1.9c-.2.8-1.1 1.2-2.1 1.1-1-.1-1.8-1.3-1.4-2.1.1-.3.5-.6.7-.7 2.9-1.8 4.8-2.4 9.3-.7 2.3.8 3.9.6 5.2.6.8 0 1.2-.4 1.9-.6 1.6-.5 2.6.6 2.6.6s-.3-2.9.8-4.9c.2-.3.9-1.1.9-1.1v-.9c.2-2.3 1-4.7 2.8-6.2 1-.9 2.4-.9 3.6-.6 2.3.6 4.1 2.1 5.3 4.1.4 0 .8-.2 1.1-.6l1.7 2.3c.2-.6.2-1.3.2-1.9l2.3 1.9c.5-.2-1.2.9-1.5 2.8m-36.2 1.9c-.9-.2-.2-1.1-1-1.9-.3-.3-.9-.4-.9-.4 2.1-1.3 4.5-.8 6 .9 0 .8-.2 1.1-.6 1.3-.8.2-1.5-.4-1.7-.9l-1.8 1zm3.4-6.8c.8-.2 1.3.4 1.9 2.1-.8.2-1.1.8-1.3 1.7-.9-.4-1.7-.9-2.1-1.9-.2-.9.6-1.7 1.5-1.9m20.1-25.1s-.1.4-.1.5c0 .1.1.5.1.5s-.7 0-1.4-.4c-.8-.5-1.6-1.1-1.6-1.1s-.2.3-.1.9c0 .2.3.9.3.9-1.8.3-3-1.2-3-1.2s-.2.2-.3.5c-.1.5.1.9.1.9-.6.3-2.2.1-2.9 0-1.8-.3-1-1.7-3.2-1.7-.5 0-.9.2-.9.2l.3.6s-1.4.2-2.1-.5c-.5-.5-1.2-1.5-1.2-1.5-.2.6-.6 1-1.4 1.1l-.4-1.5s-1 0-1.9 1.1c-.5.7-.4 1.8-.4 1.8s-.3.3-.5.4c-.4.1-.8-.1-.8-.1s.3.8.2 1c-.5.8-2.1.4-2.4-.5-.2-.4 0-1.3.2-1.7l.3-.6c.7-1.5 1.4-1.5 2.5-2 .3-.1 1.1-.8 1.1-.8-3.2-.2-5.3.2-6 1.1 0 0-.3-.5-1.1-.5-.3 0-.9.3-.9.3l-.7-.7c-.3-.4-.2-.6-.1-.6 1.6-1.2 3.8-1.5 5.8-1.1 0 0 6.9 1.4 9.2 1.7 1.2.2 2.2.5 3.4.6.6 0 .9-.1 2.3-.4 2.1-.4 3.5-1.5 4.7-3.2 0 0 1.1 1.4.6 1.8-2.1 1.5-1.1 2.3-1.1 2.3 1.3-.8 1.5-.7 2.5-.5 3.4.7 4.5.9 6 .1 0 0-.7 1.5-.4 3.4.1.3.5 1.7.2 1.2-1.1-1.5-2.5-1.4-3.4-1.5-.7.1-1.5-.8-1.5-.8m-26.6-9.1c-.3-.4-1.2-1.5-1.2-1.5 3.2-.2 4 2.2 5.5 5l-2.7.1c-.1-.1-.8-2.3-1.6-3.6m20.6-9.9c-.2 0-.6-.1-1-.2-1.6-.6-1.7-1.2-1.9-1.9-.6-3-1.5-6-2.8-8.6-.6-1.2-2-3.2-2.2-4.5-.1-.7.8-1.8 1.7-2.2.5-.3 1.2.2 1.3.8.4 1.7.6 3.2 1.1 4.9.4.8.8 1.7 1.1 2.4 1.1 2.3 1.7 4.7 2.1 7.1 0 .6.8.9 1.1 1.1l1.5 1c-.6.1-1 .2-2 .1m-11.7-13c-.9.2-1.6.8-2.5.3-.8-.4-1-1.3-.6-1.9 1.3-1.8 4.3-.6 6.6 3 0 0-2.7-1.6-3.5-1.4m-1.4-7.7c1.5-.2 3 .9 4.7 3.2-.6.6-.9 1.5-.9 2.3-.6-.6-1.5-.8-2.3-.8-1.7-1.1-2.3-3-1.5-4.7m5.6-1.5c.4-1.6 1.2-1.7 1.7-1.5.4.2.7.6.7 1v.9c-.2.8-1.4 2.4-1.2 3l-.8.4c-.6-1.3-.6-2.6-.4-3.8m16.5 26.8l-.9-2.8c2.1 2.1 4.7 3.4 7.7 3.8-2.6 1.3-5.6 1.3-8.5.2-.7-.3-1.7-1.3-1.9-1.9 1.2.2 2.4.4 3.6.7m10.5 1.6c1.5-.6 3-.6 4.5 0s3 .4 4.5.2c.4 0 .6-.2.6-.8v-1c.1-.9.5-1.3.7-1.5 0 0 .5-.7 2.9-1.1 1.1-.2 1.7 0 1.7 0l-1.1 2.6c1.3-.4 3.9-.6 5.6-3.8.6.9 1.2 3.3-.5 5.4-1.1 1.5-2.2 1.2-3.6 2.2l2.9-.2s-.2.9-.2 1.2c-.1 1.1-.3 2.1-.7 2.9-.6 1.3-1 1.8-2 2.9 0 0 .9-.3 1.4-.4.5-.1.7-.1.9.1l-.9 1.1c.8-.4 1.3-.4 2.1-.4 0 0-1.2 1.5-3.4 2.4-2.8 1.1-3.8 3.2-4.1 5.6-.1.5-.1 1.5.1 2 .1.4-1.2-1.2-1.5-1.6-1.7-2.7-.5-6.7 2.5-11.1-1.5.8-2.6 1.9-3.6 3.4l-.2-2.6c-1.1 1.3-3 2.4-4.5 3-1.9.9-2.8 2.8-3.2 5.1-.9-3.6-.7-4.4-.2-5.7.2-.5.7-1.3 1-1.7 1-1.1 2.1-2.1 3.1-3.4-1.5 1.1-3.1 2-4.9 2.4-1.3.3-2.6.6-3.8 1.1 1-1.6 2.6-1.5 4.1-2.4.9-.6 1.3-1.7 1.3-2.8-1.7 2.3-4.5 3.2-7.1 2.4-1.9-.4-3.9-.4-5.8 0-.2 0-.1-.1-.1-.3.5-1.4 2.3-2.2 3.8-2.3 1.2-.1 3.5.3 4.7.4 1.1.1 2.2-.8 2.8-1.9-1.7.2-3.4 0-5.1-.6 1.6.7 3.5.1 5.3-.8m7.4-19.4c-.2.8-.5 1.3-1.1 1.3-1.6 0-2.2-.1-5.1 1.1-.5.2-1.3.5-2.1.2-.7-.3-.9-.9-.8-2.6 0-.6.2-1.2.8-1.5.4-.2 1.7-.8 1.7-.8-1.7-.8-2.3-1.3-1.7-1.5 2.6-1.5 4.9-2.1 6.4-1.5.6.4 1.1.9 1.5 1.7 1.7.2 3.4-.2 4.9-.9 0-.4-.4-.5-.9-.6-1.4-.1-5.6-.8-5.6-.8-.4-2.1 1.3-3 5.1-3.2 0-1.3 1.7-1.3 5.3-.4 0 0-.3-1.2 0-1.3 1.9-1 3.9 0 4.3.6-1.1.8-2 1.3-3.2 3-.6.8-.8 2.6-.4 5.8l.3 1.7c-.6-1.2-2.9-1.5-2.9-1.5.6 1.5.5 2.5 0 3s-1.4.6-1.8.7c-.8.2-2.1-.1-2.8-.4-.8-.4-1.2-1.3-1.9-2.1m40 22.8c-2.9-1.8-7.2-1.1-10 .9-3.6 2.6-6.2 6-6.4 10.7-.1 3.4.9 7.2 2.7 10.7 1.7 3.4 3.7 6.7 4.6 9.9 1.1 4.1-.6 7-3.8 8.5-2.8 1.5-6.3.8-8.1-1.9-2.4-3.7-4-6.3-8.6-10-3.2-2.6-4.7-6.4-4.7-11.6l2.6 2.8c-1.1-3.9-.8-7 1.1-9.4 0 2.4.4 3.8 1.1 4.1 0-1.3 0-2.6.6-3.8l3-3.6c.8-.9 1.1-2.1 1.1-3.4.7.9 1.7 1.7 2.8 2.3-.4-.8-.6-1.7-.6-2.6.2-1.5.9-2.7 1.9-3.6.9-.7 2.3-2.5 3-3.4 1.2-1.5 1.7-3.6 1.5-5.4.9.8 2.1 1.1 3.2 1.3l-1.5-3.2c-.4-1.1-.3-2.2.2-3.2 1.1-2.4.6-5.3-1.1-7.3 1.9.2 2.9 0 3.6-.9.1-.2.5-.9.5-.9-.9.4-2 .6-2.9.1-1.8-1-2.2-2.6-3.7-3.9 1.7-.6 2.8-2.1 2.8-3.8-.8.8-1.7 1.3-2.8 1.3-1.1 0-2.3-.8-3-1.7 0 0 .4-.2 1.1-2.2.2-.7.2-1.4.2-1.4-1.7.9-3.2 1.1-5.3 1.3-1.3-1.3-3-2.3-4.9-2.8.2-1.1-.2-2.3-.9-3.2-.2.9-.4 1.8-1.3 2.4-1.2.8-2.5.6-3.6 2.4-5.4.8-8.7 2-8.6 2.8 0 .4.6 1.7.6 1.7-4.3.4-7.3 1.3-8.8 3.2l1.7 2.1v4.1c0 .8.5 1.6 1.5 1.7.6.1 1.2.7 1.7 1.7.2.5.9.9 1.5.8-.6-.8-.8-1.7-.6-2.4 0 0 2-.5 2.6-.6 3-.3 4.1 1.3 3.4 4.1-.4.8-1.1 1.3-2.1 1.5l-1.3-.8c0 .9 0 1.3-.4 1.1l-1.7-1.1c.6 1.3-.1 2.7.6 4.3.3.9 1.1 1.5 2.1 1.9-.1-.6-.5-1.1 0-1.9.7-1 2.7-1.3 3.8-.7 1.1.6 1.3 2.4.6 3.6l-.6.6c-.8.8-2.4.8-5.4 0-2.3-.8-4.5-.9-7-.6l2.3 1.5c-3.8.2-7.5-1.3-10.1-4.1v2.6s-.6 0-1.1-.3c-2.2-1.5-3.4-7-4.5-9.4-1.2-2.4-2.4-4.9-2.6-7.5-.2-1.1-.2-2.5-.8-3.6-1.3-2.3-2.6-4.7-4.1-6.9-1.3-1.9-3.2-2.1-5.8-.6 0 0 3.4.4 3.4 2.1-.6.9-.6 2.1-.4 3.2-.8-.9-1.8-1.7-3-1.9-1.1-.2-2.3-.4-3.4-.9-1.7-.8-3 0-3.8 2.3 1.3-.6 2.8-.4 3.9.6-.2 2.3 0 3.8.9 4.3 0 0-2.4 1.2-3.2 1.5-1.7.7-2.8 2.3-2.4 3.9 0 0 1.2-1 2.1-1.1 1.5-.3 6.2.8 6.2.8 1.5.4 3.9 2.8 4.3 5.3.3 1.9.4 5.3.7 7.9.3 3.2 1.2 5.9 4.8 10.3.6.8 1.1 1.5 2.1 2.1-.8.4-1.5.7-2.3.8h-1c-1.1 0-2.2-.2-3.2-.4-2.9-.7-4.3.2-9-2.1-.9-1.3-1.7-2.6-2.4-4.1-.4-.6-.9-1-1.7-1.1h-1.1l-2.6-.6c-1.3-.2-1.9.2-2.3.9-.4.6-.3 2.3-.3 2.3 2.3-1.7 4.1-.6 5.3 3.2.1.4 0 .6-.2.6-1.5 0-2.4.4-2.6.9-.2.4-.8 1.5-.8 1.5s-1.1.9-1.4 1.3c-.6 1-1 2.7 2.1 4.3-.4-2.1 0-3 1.1-3l1.9-.2s1.3-.2 1.7-.2c.2 0 .8.2.8.2l-.2.2c-.7.9-.6 2.3-.4 3.2 0 0-.1 1.8 0 2.4.2 1.4 1.7 2.3 3 2.4-.6-1.1-1.2-2.4-.4-3.5.7-1 1.6-1.8 2.8-2.1 1.4-.4 2.9-.1 5.6 1.9 3.6 2.6 4.6 1.6 6.6 3.8.6.8 1.1 1.4 2 2 0-.9.2-1.6.2-2.4 1.5 2.3 2.9 4.2 5.1 5.7l6.6 3.8c2.1 1.1 3.8 2.6 4.9 4.5-3-.9-6.2-1.5-9.4-1.9-2.1-.2-4 .3-4.8 3-.6 2.1-1.5 5.4-2.8 8.3-1.8 3.9-5.9 2.6-7.8 2.4-1.1-.1-2.6-.4-3.7-1-.3-.8-.5-1.5-.5-2.4.2-1.5-.2-2.8-.7-4.1-.4-.8-1.1-1.3-2.1-1.5 0 0-2.2-.6-3-.8-1.9-.3-3.8.8-4.3 2.6v.4c1.5-.9 2.8-1.1 3.6-.8.6.4.8 1.1.6 2.3-1.9-.6-3.9-.2-5.4.8-1.1.8-1.5 2.1-1.1 3.2 0 0 .7-.8 1.7-.9.6-.1 1.1 0 1.5.4l2.8 3.2s-1.3.8-1.7 1.1c-.8.6-3.7 3.8-.6 5.7.1 0 .1-.9 1-1.5.6-.4 1.3-.3 1.3-.3 1.3.2 2.8 0 4.1-.6 1.3 3 2.4 4.7 3.8 4.9.4-3.9 4.7-2.1 4.7-2.1.4.1 1 .7 1.4.9.8.5 1.8.6 1.8.6s-.6-.6-.8-1.2l-.1-.4c1.7.8 3.2 1.1 5.1 1.3v-1.7c1.1.8 2.3 1.3 3.6 1.7 0 0-1.3-2.3-.6-3.2.8-.9 2.1-2.4 2.1-2.4s.6.2.8.2c2.7.2 3.2-5.1 3.2-5.1 2.1.6 3.9 1.7 5.4 3.2l.9-.4 1.1 1.3c.4.6.8.6 1.3 0 0 0 1.1 1.8 2.6 2.4 0 0-.6-2.3 1.7-2.8 0 0-.3.8-.4 1-.2.8-.2 1.3-.2 1.3l1.1-1c0 1.7 0 3.5-.9 4.9-1.3 2-2.8 4.1-.9 6.6.5.7 1.2.8 1.9 2.1.6 1 .8 2.3 1.7 2.8.4-.6.8-1.3.9-2.1l2.8 2.4.6-3s6.3-1.9 8.5-2.1c2.8-.2 5.6-.2 8.3-.9-.4 2.3-.2 4.7.6 7-1.9 1.3-4.5 1.6-6.4.3-2.3-1.6-3-2.7-5.1-2.1-4-.7-4.2 1.4-4.2 1.4.8-.4 1.6.3 2.4.5-.1 1.9.9 2 2.4 2.8l-1.9 1.9c-1.9.8-2.6 2.3-1.9 4.5l1.5-1.5c.8-.4 1.5-.6 2.3-.4l1.5.4 1.5.2s-.7 2.9-1 4.2c-.2.9-.1 2.6.4 3.8 0 0 1-1.1 1.9-1.7.9-.6 1.4-.7 2.3-1.1 1.9-.8 2.4-2.1 2.6-3.8.1-.9.4-1.7 2.8-2.4 2.1-.4 3.9-.4 6-.4-.9-.8-1.1-2.4-.8-5.3.4-.2 2.3 1.8 2.3 1.8.2-.9.7-1.5.5-2.6-.2-.6-.3-.7-.7-1.1l1.3.8c.3-.9.1-1.8-.4-2.5l1.3 1.1c.2-.8 0-1.5-.2-2.3-.2-.7-.9-2.1-1.1-2.8-.1-.4-.3-1.1-.4-1.5-.3-1.9-.8-3.8-2.1-5.3-1.4-1.6-3.9-2.9-6.1-2.6-2.5.4-8.4.3-8.4.3l2.4-3 5.3.2c7.1 0 11.5-2.6 12.8-7.9.8-4.3-.3-9.4-3.6-14.8-2.1-3.5-3.8-7.1-4.3-11.1-.4-3.6.9-7.1 4.1-9.4 3.8-2.6 6.8-1.9 9.6 1.1-2.3 1.1-4.2 2.6-4.5 5.6-.1 1.1 0 2.4.6 3.6.4-.8.8-1.5 1.3-2.1 0 0-.1 2.5 0 3.4 0 0 .2 4.5 4.7 5.3-.8-1.1-1.4-2.4-1.5-3.8-.1-2.3 1.2-4.6 1.9-6.8 1.3-4.4 0-7.7-3.1-9.6" class="st1"/>
    <g class="st2">
        <defs>
            <path id="SVGID_1_" d="M216.4 103.9c-.8-2.3-.9-4.5-.4-7 .9.2 2.1 1.5 3.2 3.9l-1.1-.2s0 1.1.8 1.9c0 0-1.3 1.7-.6 4.5-3.7-.2-7.1 6.4-7.1 6.4l-1.1 1.7c-.8.8-1.3.8-2.1.2-.3-.3-.6-1-.2-2.1.7-1.9 2-2.5 3.2-3.6.8-.7.9-1.9.8-2.8l-.9 1.3-1.3-.6.2 1.3c-1.1 1.3-2.8 1.9-4.5 1.3-.8-.2-.9-.9-.6-2.1.6-1.3 1.9-2.4 3.4-2.8-.9-.4-1.9-.4-2.8 0 0 0-2.1-.1-1.9-2.4.7-.4 2.2-.4 3.6.8.8.7 1.9 1.5 3 1.7.8.2 1.6.2 2.3.2 1.7.1 3.1-.5 4.1-1.6M148 78.5c-.3-.3-.9-.4-.9-.4 2.1-1.3 4.5-.8 6 .9 0 .8-.2 1.1-.6 1.3-.7.2-1.5-.4-1.7-.9l-1.9.9c-.9-.1-.2-1-.9-1.8m2.8-3c-.2-.9.6-1.7 1.5-1.9.8-.2 1.3.4 1.9 2.1-.8.2-1.1.8-1.3 1.7-1-.4-1.7-.9-2.1-1.9m18.4 3c.2-.3.9-1.1.9-1.1v-.9c.2-2.3 1-4.7 2.8-6.2 1-.9 2.4-.9 3.6-.6 2.3.6 4.1 2.1 5.3 4.1.4 0 .8-.2 1.1-.6l1.7 2.3c.2-.6.2-1.3.2-1.9l2.3 1.9s-1.7 1.1-1.9 3c0 0-.5.1-.8-1-.1-.6-.6-.9-.6-.9s-.2.4-.2.8c0 .3.1.8.1.8-.8-1.7-2.1-3-3.6-3.9-1.1-.6-2-1.4-3-2.3 0 0-.2.7-.2 1 0 .3.1 1 .1 1s-.3 0-.7-.2c-.2-.1-1.1-.5-1.1-.5s.1 1.1.1 1.4c.1.9-.1 1.2-.1 1.2s-.1 0-.4-.4c-.4-.5-.8-.7-.8-.7v1.4c0 .4.1 1.5.1 1.5l-1.1-1.1s-.5.8-.2 3.4c.2 1.7 1.7 3 1.6 3.1 0 0-.8-.2-2.5-1.7l-1.1-1.1c-.2 1 0 2.6.3 3.7l-1.3-1.5c0 1.3-.4 2.8-.9 4.1l-.8-.8c-.4-.4-.8-.7-1.6-.7 0 0 .2 1.3.2 1.4-.1.2-.9-.9-1.8-1-.9-.2-1.9.1-3.8.4-.4.1-1-.1-1.4-.4l-1.5-1.3s-.1.4 0 1.1c.1.6.4 1.1.4 1.1l-2-1.6c-.2 2.3-.6 3.6-1.3 3.9v-1.3s-.4.1-.6 0c-.2-.1-.4-.4 0-.8 1-1 1.1-1.9.8-3.6-.6 1.7-1.3 2.6-2.3 2.4 0 0-.1-.4-.5-1.2-.4-.7-.8-.6-.8-.6s.1 1.4 0 1.9c-.2.8-1.1 1.2-2.1 1.1-1-.1-1.8-1.3-1.4-2.1.1-.3.5-.6.7-.7 2.9-1.8 4.8-2.4 9.3-.7 2.3.8 3.9.6 5.2.6.8 0 1.2-.4 1.9-.6 1.6-.5 2.6.6 2.6.6s0-3.2 1.1-5.2m17.3-20.1s-.2-1 .2-1.6c.5-.8 1.5-1 1.5-1l.6 3c.4 0 .8-.5 1-1.9.8 1.3.4 1.5.9 3.1 0 0 .5-.1.8-.7.3-.6.3-.9.3-.9s.6.8.7 1.4c.3 1.2.5 2.2.5 2.2s.5-.5.5-1.8-.2-1.9-.2-1.9c1.1 1.7 2.1 3.6 2.6 5.6l.6-1.7c.4 1.1.4 2.3.4 3.4 0 0 .1 1.1-.2 2.5 0 0 1.6 0 2.3-2.7 0 0-.1.8.2 2.3.1.5.3 1.2.9 1.9l.8-1.1s3.7 3.2 4.9 5.1c1.2 1.8 1.7 3 .8 3.6-.2.1-.3.1-.5 0-.3 0-.7-.1-1.3.1l.7 1.4s-.9.2-1.3 0c-.2-.1.6 2 .6 2s-.7-.5-.9-.6c-.3-.2-.8-.2-.8-.2 1.9 4.3-1 5.9-.1 9.2.2.8 1.1 1.3 1.5 2.1 1.3-1.1 3.4-1.5 5.3-1.1 1.1.2 2.4.2 3.6-.2 2.3-.8 4.9-.4 6.8 1.1 1.1.8 1.9 2.1 2.1 3.4 0 0-.9.3-1.7-.1-.4-.2-1.3-.9-1.3-.9v1.9s-.9-.4-1.1-.6c-.5-.4-1.3-2.1-1.3-2.1l-.9 1.9-.8-1.9c-.4.6-.9.8-1.5.9l-.5-1.3s-.8 1.6-1.3 2c-.2.2-.5.2-.8.3-.3.1-1.1.1-1.4.1-7.5-.9-9.4 1.1-9.4 1.1.2-1.5-.1-1.9-.3-3.4l-1.6 3.4s-.1-2.3-.1-3.1c-.1-1.3-1-1.9-1.2-1.9 0 2.1-.6 4-1.5 5.9l-.1-2.5s-.8.1-1.2 1.4c-.4-.4-.5-1.2-.3-1.7.4-.9 1.2-1.6 1.4-2.8.2-.8 0-1.5-.4-2.3-1.8-3.1-1.3-5.6-1.3-5.6l.9 1.1c.8-1.9 1.1-3.9.8-6l.8.4c0-5.3-1.5-8.3-6.7-9.6-.6-.2-1.5-.5-2.1-2l2.1-.4s-.6-1-2.7-1.7c-1.4-.5-5.6-1.1-5.6-1.1.8 0 1.5-.3 1.7-.9 0 0-4.4-.3-6.1-1.6 0 0 .2-.7 1.1-.9.5-.1 1.9 0 1.9 0l-1-1.3c1.3.2 2.3.3 3.3.3 3-.2 4.4-1 4.4-1m-21.8-12.6c2.1-.4 3.5-1.5 4.7-3.2 0 0 1.1 1.4.6 1.8-2.1 1.5-1.1 2.3-1.1 2.3 1.3-.8 1.5-.7 2.5-.5 3.4.7 4.5.9 6 .1 0 0-.7 1.5-.4 3.4.1.3.5 1.7.2 1.2-1.1-1.5-2.5-1.4-3.4-1.5-.7-.1-1.4-.9-1.4-.9s-.1.4-.1.5c0 .1.1.5.1.5s-.7 0-1.4-.4c-.8-.5-1.6-1.1-1.6-1.1s-.2.3-.1.9c0 .2.3.9.3.9-1.8.3-3-1.2-3-1.2s-.2.2-.3.5c-.1.5.1.9.1.9-.6.3-2.2.1-3 0-1.8-.3-1-1.7-3.2-1.7-.5 0-.9.2-.9.2l.3.6s-1.4.2-2.1-.5c-.5-.5-1.2-1.5-1.2-1.5-.2.6-.6 1-1.4 1.1l-.4-1.5s-1 0-1.9 1.1c-.5.7-.4 1.8-.4 1.8s-.3.3-.5.4c-.4.1-.8-.1-.8-.1s.4.8.2 1c-.5.8-2.1.4-2.4-.5-.2-.4 0-1.3.2-1.7l.3-.6c.7-1.5 1.4-1.5 2.5-2 .3-.1 1.1-.8 1.1-.8-3.2-.2-5.3.2-6 1.1 0 0-.3-.5-1.1-.5-.3 0-.9.3-.9.3l-.7-.7c-.3-.4-.2-.6-.1-.7 1.6-1.2 3.8-1.5 5.8-1.1 0 0 6.9 1.4 9.2 1.7 1.2.2 2.2.5 3.4.6h.1c.5.2.8.1 2.2-.2m-18.9-6.4c-.3-.4-1.2-1.5-1.2-1.5 3.2-.2 4 2.2 5.5 5l-2.7.1c-.1-.1-.8-2.3-1.6-3.6m28.7-8c2.1 2.1 4.7 3.4 7.7 3.8-2.6 1.3-5.7 1.3-8.5.2-.7-.3-1.7-1.3-1.9-1.9 1.1.2 2.3.4 3.5.7l-.8-2.8zm30.8-1c.6.9 1.2 3.3-.5 5.4-1.1 1.5-2.2 1.2-3.6 2.2l2.9-.2s-.2.9-.2 1.2c-.1 1.1-.3 2.1-.7 2.9-.6 1.3-1 1.8-2 2.9 0 0 .9-.3 1.4-.4.5-.1.7-.1.9.1l-.9 1.1c.8-.4 1.3-.4 2.1-.4 0 0-1.2 1.5-3.4 2.4-2.8 1.1-3.8 3.2-4.1 5.6-.1.5-.1 1.5.1 2 .1.4-1.2-1.2-1.5-1.6-1.7-2.7-.5-6.8 2.5-11.1-1.5.8-2.6 1.9-3.6 3.4l-.2-2.6c-1.1 1.3-3 2.4-4.5 3-1.9.9-2.8 2.8-3.2 5.1-.9-3.6-.7-4.4-.2-5.7.2-.5.7-1.3 1.1-1.7 1-1.1 2.1-2.1 3.1-3.4-1.5 1.1-3.2 2-4.9 2.4-1.3.3-2.6.6-3.8 1.1 1-1.6 2.6-1.5 4.1-2.4.9-.6 1.3-1.7 1.3-2.8-1.7 2.3-4.5 3.2-7.1 2.4-1.9-.4-3.9-.4-5.8 0-.2 0-.1-.1-.1-.3.5-1.4 2.3-2.2 3.8-2.3 1.2-.1 3.5.3 4.7.4 1.1.1 2.2-.8 2.8-1.9-1.7.2-3.4 0-5.1-.6 1.5.4 3.4-.2 5.3-1.1 1.5-.6 3-.6 4.5 0s3 .4 4.5.2c.4 0 .6-.2.6-.8v-1c.1-.9.5-1.3.7-1.5 0 0 .5-.7 2.9-1.1 1.1-.2 1.7 0 1.7 0l-1.1 2.6c1.2-.1 3.8-.3 5.5-3.5m-53.2-13.7c-.8-.4-1-1.3-.6-1.9 1.3-1.8 4.3-.6 6.6 3 0 0-2.7-1.6-3.5-1.4-.6.2-1.2.5-1.7.5-.2.1-.5 0-.8-.2m14.3 12.8c-.2 0-.6-.1-1-.2-1.6-.6-1.7-1.2-1.9-1.9-.6-3-1.5-6-2.8-8.6-.6-1.2-2-3.2-2.2-4.5-.1-.7.8-1.8 1.7-2.2.5-.3 1.2.2 1.3.8.4 1.7.6 3.2 1.1 4.9.4.8.8 1.7 1.1 2.4 1.1 2.3 1.7 4.7 2.1 7.1 0 .6.8.9 1.1 1.1l1.5 1c-.4.1-.8.2-1.3.2-.2 0-.4 0-.7-.1m-11.6-16c-1.7-1.1-2.3-3-1.5-4.7 1.5-.2 3 .9 4.7 3.2-.6.6-.9 1.5-.9 2.3-.7-.6-1.6-.8-2.3-.8m4.1-6.2c.4-1.6 1.2-1.7 1.7-1.5.4.2.7.6.7 1v.9c-.2.8-1.4 2.4-1.2 3l-.8.4c-.6-1.3-.6-2.6-.4-3.8m42.6-1.7c1.9-1 3.9 0 4.3.6-1.1.8-2 1.3-3.2 3-.6.8-.8 2.6-.4 5.8l.3 1.7c-.6-1.2-2.9-1.5-2.9-1.5.6 1.5.5 2.5 0 3s-1.4.6-1.8.7c-.8.2-2.1-.1-2.8-.4-.7-.4-1.1-1.3-1.9-2.1-.2.8-.5 1.3-1.1 1.3-1.6 0-2.2-.1-5.1 1.1-.5.2-1.3.5-2.1.2-.7-.3-.9-.9-.8-2.6 0-.6.2-1.2.8-1.5.4-.2 1.7-.8 1.7-.8-1.7-.8-2.3-1.3-1.7-1.5 2.6-1.5 4.9-2.1 6.4-1.5.6.4 1.1.9 1.5 1.7 1.7.2 3.4-.2 4.9-.9 0-.4-.4-.5-.9-.6-1.4-.1-5.6-.8-5.6-.8-.4-2.1 1.3-3 5.1-3.2 0-1.3 1.7-1.3 5.3-.4 0 .1-.3-1.1 0-1.3m0-3.2c-1.2.8-2.5.6-3.6 2.4-5.4.8-8.7 2-8.6 2.8 0 .4.6 1.7.6 1.7-4.3.4-7.3 1.3-8.8 3.2l1.7 2.1v4.1c0 .8.5 1.6 1.5 1.7.6.1 1.2.7 1.7 1.7.2.5.9.9 1.5.7-.6-.7-.8-1.7-.6-2.4 0 0 2-.5 2.6-.6 3-.3 4.1 1.3 3.4 4.1-.4.8-1.1 1.3-2.1 1.5l-1.3-.8c0 .9 0 1.3-.4 1.1l-1.7-1.1c.6 1.3-.1 2.7.6 4.3.3.9 1.1 1.5 2.1 1.9-.1-.6-.5-1.1 0-1.9.6-1 2.7-1.3 3.8-.7 1.1.6 1.3 2.4.6 3.6l-.6.6c-.8.8-2.4.8-5.4 0-2.3-.8-4.5-.9-7-.6l2.3 1.5c-3.8.2-7.5-1.3-10.1-4.1v2.6s-.6 0-1.1-.3c-2.2-1.5-3.4-7-4.5-9.4-1.2-2.4-2.4-4.9-2.6-7.5-.2-1.1-.2-2.5-.8-3.6-1.3-2.3-2.6-4.7-4.1-7-1.3-1.9-3.2-2.1-5.8-.6 0 0 3.4.4 3.4 2.1-.6.9-.6 2.1-.4 3.2-.8-.9-1.8-1.7-3-1.9-1.1-.2-2.3-.4-3.4-.9-1.7-.8-3 0-3.8 2.3 1.3-.6 2.8-.4 3.9.6-.2 2.3 0 3.8.9 4.3 0 0-2.4 1.2-3.2 1.5-1.7.7-2.8 2.3-2.4 3.9 0 0 1.2-1 2.1-1.1 1.5-.3 6.2.8 6.2.8 1.5.4 3.9 2.8 4.3 5.3.3 1.9.4 5.3.7 7.9.3 3.2 1.2 5.9 4.8 10.3.6.8 1.1 1.5 2.1 2.1-.8.4-1.5.7-2.3.8h-1c-1.1 0-2.2-.2-3.2-.4-2.9-.7-4.3.2-9-2.1-.9-1.3-1.7-2.6-2.4-4.1-.4-.6-.9-1-1.7-1.1h-1.1l-2.6-.6c-1.3-.2-1.9.2-2.3.9-.4.6-.3 2.3-.3 2.3 2.3-1.7 4.1-.6 5.3 3.2.1.4 0 .6-.2.6-1.5 0-2.4.4-2.6.9-.2.4-.8 1.5-.8 1.5s-1.1.9-1.4 1.3c-.7 1-1 2.7 2.1 4.3-.4-2.1 0-3 1.1-3l1.9-.2s1.3-.2 1.7-.2c.2 0 .8.2.8.2l-.2.2c-.7.9-.6 2.3-.4 3.2 0 0-.1 1.8 0 2.4.2 1.4 1.7 2.3 3 2.4-.6-1.1-1.2-2.4-.4-3.5.7-1 1.6-1.8 2.8-2.1 1.4-.4 2.9-.1 5.6 1.9 3.6 2.6 4.6 1.6 6.6 3.8.6.8 1.1 1.4 2 2 0-.9.2-1.6.2-2.4 1.5 2.3 2.9 4.2 5.1 5.7l6.6 3.8c2.1 1.1 3.8 2.6 4.9 4.5-3-.9-6.2-1.5-9.4-1.9-2.1-.2-4 .3-4.8 3-.6 2.1-1.5 5.4-2.8 8.3-1.8 3.9-5.9 2.6-7.8 2.4-1.1-.1-2.6-.4-3.7-1-.3-.8-.5-1.5-.5-2.4.2-1.5-.2-2.8-.8-4.1-.4-.8-1.1-1.3-2.1-1.5 0 0-2.2-.6-3-.8-1.9-.3-3.8.8-4.3 2.6v.4c1.5-.9 2.8-1.1 3.6-.8.6.4.8 1.1.6 2.3-1.9-.6-3.9-.2-5.4.8-1.1.8-1.5 2.1-1.1 3.2 0 0 .7-.8 1.7-.9.6-.1 1.1 0 1.5.4l2.8 3.2s-1.3.8-1.7 1.1c-.8.6-3.7 3.8-.6 5.7.1 0 .1-.9 1-1.5.6-.4 1.3-.3 1.3-.3 1.3.2 2.8 0 4.1-.6 1.3 3 2.4 4.7 3.8 4.9.4-3.9 4.7-2.1 4.7-2.1.4.1 1 .7 1.4.9.8.5 1.8.6 1.8.6s-.6-.6-.8-1.2l-.1-.4c1.7.8 3.2 1.1 5.1 1.3v-1.7c1.1.8 2.3 1.3 3.6 1.7 0 0-1.3-2.3-.6-3.2.8-.9 2.1-2.4 2.1-2.4s.6.2.8.2c2.7.2 3.2-5.1 3.2-5.1 2.1.6 3.9 1.7 5.4 3.2l.9-.4 1.1 1.3c.4.6.8.6 1.3 0 0 0 1.1 1.8 2.6 2.4 0 0-.6-2.3 1.7-2.8 0 0-.3.8-.4 1-.2.8-.2 1.3-.2 1.3l1.1-1c0 1.7 0 3.5-.9 4.9-1.3 2-2.8 4.1-.9 6.6.5.7 1.2.8 1.9 2.1.6 1 .8 2.3 1.7 2.8.4-.6.8-1.3.9-2.1l2.8 2.4.6-3s6.3-1.9 8.5-2.1c2.8-.2 5.6-.2 8.3-.9-.4 2.3-.2 4.7.6 7-1.9 1.3-4.5 1.6-6.4.3-2.3-1.6-3-2.7-5.1-2.1-4-.7-4.2 1.4-4.2 1.4.8-.4 1.6.3 2.4.5-.1 1.9.9 2 2.4 2.8l-1.9 1.9c-1.9.8-2.6 2.3-1.9 4.5l1.5-1.5c.8-.4 1.5-.6 2.3-.4l1.5.4 1.5.2s-.7 2.9-1 4.2c-.2.9-.1 2.6.4 3.8 0 0 1-1.1 1.9-1.7.9-.6 1.4-.7 2.3-1.1 1.9-.8 2.4-2.1 2.6-3.8.1-.9.4-1.7 2.8-2.4 2.1-.4 3.9-.4 6-.4-.9-.8-1.1-2.4-.8-5.3.4-.2 2.3 1.8 2.3 1.8.2-.9.7-1.5.5-2.6-.2-.6-.3-.7-.7-1.1l1.3.8c.3-.9.2-1.8-.4-2.5l1.3 1.1c.2-.8 0-1.5-.2-2.3-.2-.7-.9-2.1-1.1-2.8-.1-.4-.3-1.1-.4-1.5-.3-1.9-.8-3.8-2.1-5.3-1.4-1.6-3.9-2.9-6.1-2.6-2.5.4-8.4.3-8.4.3l2.4-3 5.3.2c7.1 0 11.5-2.6 12.8-7.9.8-4.3-.3-9.4-3.6-14.8-2.1-3.5-3.8-7.1-4.3-11.1-.4-3.6.9-7.1 4.1-9.4 3.8-2.6 6.8-1.9 9.6 1.1-2.3 1.1-4.2 2.6-4.5 5.6-.1 1.1 0 2.4.6 3.6.4-.8.8-1.5 1.3-2.1 0 0-.1 2.5 0 3.4 0 0 .2 4.5 4.7 5.3-.8-1.1-1.4-2.4-1.5-3.8-.1-2.3 1.2-4.6 1.9-6.8.4-1.2.6-2.3.6-3.3v-.1c0-2.7-1.3-4.8-3.6-6.2-2.9-1.8-7.2-1.1-10 .9-3.6 2.6-6.2 6-6.4 10.7-.1 3.4.9 7.2 2.7 10.7 1.7 3.4 3.7 6.7 4.6 9.9 1.1 4.1-.6 7-3.8 8.5-2.8 1.5-6.3.8-8.1-1.9-2.4-3.7-4-6.3-8.6-10-3.3-2.6-4.7-6.4-4.7-11.6l2.6 2.8c-1.1-3.9-.8-7 1.1-9.4 0 2.4.4 3.8 1.1 4.1 0-1.3 0-2.6.6-3.8l3-3.6c.7-.9 1.1-2.1 1.1-3.4.8.9 1.7 1.7 2.8 2.3-.4-.8-.6-1.7-.6-2.6.2-1.5.9-2.7 1.9-3.6.9-.7 2.3-2.5 3-3.4 1.2-1.5 1.7-3.6 1.5-5.4.9.8 2.1 1.1 3.2 1.3l-1.5-3.2c-.4-1.1-.3-2.2.2-3.2 1.1-2.4.6-5.3-1.1-7.3 1.9.2 2.9 0 3.6-.9.1-.2.5-.9.5-.9-.9.4-2 .6-2.9.1-1.8-1-2.2-2.6-3.7-3.9 1.7-.6 2.8-2.1 2.8-3.8-.8.8-1.7 1.3-2.8 1.3-1.1 0-2.3-.8-3-1.7 0 0 .4-.2 1.1-2.2.2-.7.2-1.4.2-1.4-1.7.9-3.2 1.1-5.3 1.3-1.3-1.3-3-2.3-4.9-2.8.2-1.1-.2-2.3-.9-3.2-.1 1.1-.4 2-1.3 2.6"/>
        </defs>
        <clipPath id="SVGID_2_">
            <use overflow="visible" xlink:href="#SVGID_1_"/>
        </clipPath>
        <linearGradient id="SVGID_3_" x1="2294.19" x2="2295.19" y1="505.864" y2="505.864" gradientTransform="matrix(0 -119.4947 -119.4947 0 60636.55 274263.094)" gradientUnits="userSpaceOnUse">
            <stop offset="0" stop-color="#231f20"/>
            <stop offset="1" stop-color="#fff"/>
        </linearGradient>
        <path d="M140.1 0h96.7v119.5h-96.7z" class="st3"/>
    </g>
    <g class="st2">
        <defs>
            <path id="SVGID_4_" d="M216.4 103.9c-.8-2.3-.9-4.5-.4-7 .9.2 2.1 1.5 3.2 3.9l-1.1-.2s0 1.1.8 1.9c0 0-1.3 1.7-.6 4.5-3.7-.2-7.1 6.4-7.1 6.4l-1.1 1.7c-.8.8-1.3.8-2.1.2-.3-.3-.6-1-.2-2.1.7-1.9 2-2.5 3.2-3.6.8-.7.9-1.9.8-2.8l-.9 1.3-1.3-.6.2 1.3c-1.1 1.3-2.8 1.9-4.5 1.3-.8-.2-.9-.9-.6-2.1.6-1.3 1.9-2.4 3.4-2.8-.9-.4-1.9-.4-2.8 0 0 0-2.1-.1-1.9-2.4.7-.4 2.2-.4 3.6.8.8.7 1.9 1.5 3 1.7.8.2 1.6.2 2.3.2 1.7.1 3.1-.5 4.1-1.6M148 78.5c-.3-.3-.9-.4-.9-.4 2.1-1.3 4.5-.8 6 .9 0 .8-.2 1.1-.6 1.3-.7.2-1.5-.4-1.7-.9l-1.9.9c-.9-.1-.2-1-.9-1.8m2.8-3c-.2-.9.6-1.7 1.5-1.9.8-.2 1.3.4 1.9 2.1-.8.2-1.1.8-1.3 1.7-1-.4-1.7-.9-2.1-1.9m18.4 3c.2-.3.9-1.1.9-1.1v-.9c.2-2.3 1-4.7 2.8-6.2 1-.9 2.4-.9 3.6-.6 2.3.6 4.1 2.1 5.3 4.1.4 0 .8-.2 1.1-.6l1.7 2.3c.2-.6.2-1.3.2-1.9l2.3 1.9s-1.7 1.1-1.9 3c0 0-.5.1-.8-1-.1-.6-.6-.9-.6-.9s-.2.4-.2.8c0 .3.1.8.1.8-.8-1.7-2.1-3-3.6-3.9-1.1-.6-2-1.4-3-2.3 0 0-.2.7-.2 1 0 .3.1 1 .1 1s-.3 0-.7-.2c-.2-.1-1.1-.5-1.1-.5s.1 1.1.1 1.4c.1.9-.1 1.2-.1 1.2s-.1 0-.4-.4c-.4-.5-.8-.7-.8-.7v1.4c0 .4.1 1.5.1 1.5l-1.1-1.1s-.5.8-.2 3.4c.2 1.7 1.7 3 1.6 3.1 0 0-.8-.2-2.5-1.7l-1.1-1.1c-.2 1 0 2.6.3 3.7l-1.3-1.5c0 1.3-.4 2.8-.9 4.1l-.8-.8c-.4-.4-.8-.7-1.6-.7 0 0 .2 1.3.2 1.4-.1.2-.9-.9-1.8-1-.9-.2-1.9.1-3.8.4-.4.1-1-.1-1.4-.4l-1.5-1.3s-.1.4 0 1.1c.1.6.4 1.1.4 1.1l-2-1.6c-.2 2.3-.6 3.6-1.3 3.9v-1.3s-.4.1-.6 0c-.2-.1-.4-.4 0-.8 1-1 1.1-1.9.8-3.6-.6 1.7-1.3 2.6-2.3 2.4 0 0-.1-.4-.5-1.2-.4-.7-.8-.6-.8-.6s.1 1.4 0 1.9c-.2.8-1.1 1.2-2.1 1.1-1-.1-1.8-1.3-1.4-2.1.1-.3.5-.6.7-.7 2.9-1.8 4.8-2.4 9.3-.7 2.3.8 3.9.6 5.2.6.8 0 1.2-.4 1.9-.6 1.6-.5 2.6.6 2.6.6s0-3.2 1.1-5.2m17.3-20.1s-.2-1 .2-1.6c.5-.8 1.5-1 1.5-1l.6 3c.4 0 .8-.5 1-1.9.8 1.3.4 1.5.9 3.1 0 0 .5-.1.8-.7.3-.6.3-.9.3-.9s.6.8.7 1.4c.3 1.2.5 2.2.5 2.2s.5-.5.5-1.8-.2-1.9-.2-1.9c1.1 1.7 2.1 3.6 2.6 5.6l.6-1.7c.4 1.1.4 2.3.4 3.4 0 0 .1 1.1-.2 2.5 0 0 1.6 0 2.3-2.7 0 0-.1.8.2 2.3.1.5.3 1.2.9 1.9l.8-1.1s3.7 3.2 4.9 5.1c1.2 1.8 1.7 3 .8 3.6-.2.1-.3.1-.5 0-.3 0-.7-.1-1.3.1l.7 1.4s-.9.2-1.3 0c-.2-.1.6 2 .6 2s-.7-.5-.9-.6c-.3-.2-.8-.2-.8-.2 1.9 4.3-1 5.9-.1 9.2.2.8 1.1 1.3 1.5 2.1 1.3-1.1 3.4-1.5 5.3-1.1 1.1.2 2.4.2 3.6-.2 2.3-.8 4.9-.4 6.8 1.1 1.1.8 1.9 2.1 2.1 3.4 0 0-.9.3-1.7-.1-.4-.2-1.3-.9-1.3-.9v1.9s-.9-.4-1.1-.6c-.5-.4-1.3-2.1-1.3-2.1l-.9 1.9-.8-1.9c-.4.6-.9.8-1.5.9l-.5-1.3s-.8 1.6-1.3 2c-.2.2-.5.2-.8.3-.3.1-1.1.1-1.4.1-7.5-.9-9.4 1.1-9.4 1.1.2-1.5-.1-1.9-.3-3.4l-1.6 3.4s-.1-2.3-.1-3.1c-.1-1.3-1-1.9-1.2-1.9 0 2.1-.6 4-1.5 5.9l-.1-2.5s-.8.1-1.2 1.4c-.4-.4-.5-1.2-.3-1.7.4-.9 1.2-1.6 1.4-2.8.2-.8 0-1.5-.4-2.3-1.8-3.1-1.3-5.6-1.3-5.6l.9 1.1c.8-1.9 1.1-3.9.8-6l.8.4c0-5.3-1.5-8.3-6.7-9.6-.6-.2-1.5-.5-2.1-2l2.1-.4s-.6-1-2.7-1.7c-1.4-.5-5.6-1.1-5.6-1.1.8 0 1.5-.3 1.7-.9 0 0-4.4-.3-6.1-1.6 0 0 .2-.7 1.1-.9.5-.1 1.9 0 1.9 0l-1-1.3c1.3.2 2.3.3 3.3.3 3-.2 4.4-1 4.4-1m-21.8-12.6c2.1-.4 3.5-1.5 4.7-3.2 0 0 1.1 1.4.6 1.8-2.1 1.5-1.1 2.3-1.1 2.3 1.3-.8 1.5-.7 2.5-.5 3.4.7 4.5.9 6 .1 0 0-.7 1.5-.4 3.4.1.3.5 1.7.2 1.2-1.1-1.5-2.5-1.4-3.4-1.5-.7-.1-1.4-.9-1.4-.9s-.1.4-.1.5c0 .1.1.5.1.5s-.7 0-1.4-.4c-.8-.5-1.6-1.1-1.6-1.1s-.2.3-.1.9c0 .2.3.9.3.9-1.8.3-3-1.2-3-1.2s-.2.2-.3.5c-.1.5.1.9.1.9-.6.3-2.2.1-3 0-1.8-.3-1-1.7-3.2-1.7-.5 0-.9.2-.9.2l.3.6s-1.4.2-2.1-.5c-.5-.5-1.2-1.5-1.2-1.5-.2.6-.6 1-1.4 1.1l-.4-1.5s-1 0-1.9 1.1c-.5.7-.4 1.8-.4 1.8s-.3.3-.5.4c-.4.1-.8-.1-.8-.1s.4.8.2 1c-.5.8-2.1.4-2.4-.5-.2-.4 0-1.3.2-1.7l.3-.6c.7-1.5 1.4-1.5 2.5-2 .3-.1 1.1-.8 1.1-.8-3.2-.2-5.3.2-6 1.1 0 0-.3-.5-1.1-.5-.3 0-.9.3-.9.3l-.7-.7c-.3-.4-.2-.6-.1-.7 1.6-1.2 3.8-1.5 5.8-1.1 0 0 6.9 1.4 9.2 1.7 1.2.2 2.2.5 3.4.6h.1c.5.2.8.1 2.2-.2m-18.9-6.4c-.3-.4-1.2-1.5-1.2-1.5 3.2-.2 4 2.2 5.5 5l-2.7.1c-.1-.1-.8-2.3-1.6-3.6m28.7-8c2.1 2.1 4.7 3.4 7.7 3.8-2.6 1.3-5.7 1.3-8.5.2-.7-.3-1.7-1.3-1.9-1.9 1.1.2 2.3.4 3.5.7l-.8-2.8zm30.8-1c.6.9 1.2 3.3-.5 5.4-1.1 1.5-2.2 1.2-3.6 2.2l2.9-.2s-.2.9-.2 1.2c-.1 1.1-.3 2.1-.7 2.9-.6 1.3-1 1.8-2 2.9 0 0 .9-.3 1.4-.4.5-.1.7-.1.9.1l-.9 1.1c.8-.4 1.3-.4 2.1-.4 0 0-1.2 1.5-3.4 2.4-2.8 1.1-3.8 3.2-4.1 5.6-.1.5-.1 1.5.1 2 .1.4-1.2-1.2-1.5-1.6-1.7-2.7-.5-6.8 2.5-11.1-1.5.8-2.6 1.9-3.6 3.4l-.2-2.6c-1.1 1.3-3 2.4-4.5 3-1.9.9-2.8 2.8-3.2 5.1-.9-3.6-.7-4.4-.2-5.7.2-.5.7-1.3 1.1-1.7 1-1.1 2.1-2.1 3.1-3.4-1.5 1.1-3.2 2-4.9 2.4-1.3.3-2.6.6-3.8 1.1 1-1.6 2.6-1.5 4.1-2.4.9-.6 1.3-1.7 1.3-2.8-1.7 2.3-4.5 3.2-7.1 2.4-1.9-.4-3.9-.4-5.8 0-.2 0-.1-.1-.1-.3.5-1.4 2.3-2.2 3.8-2.3 1.2-.1 3.5.3 4.7.4 1.1.1 2.2-.8 2.8-1.9-1.7.2-3.4 0-5.1-.6 1.5.4 3.4-.2 5.3-1.1 1.5-.6 3-.6 4.5 0s3 .4 4.5.2c.4 0 .6-.2.6-.8v-1c.1-.9.5-1.3.7-1.5 0 0 .5-.7 2.9-1.1 1.1-.2 1.7 0 1.7 0l-1.1 2.6c1.2-.1 3.8-.3 5.5-3.5m-53.2-13.7c-.8-.4-1-1.3-.6-1.9 1.3-1.8 4.3-.6 6.6 3 0 0-2.7-1.6-3.5-1.4-.6.2-1.2.5-1.7.5-.2.1-.5 0-.8-.2m14.3 12.8c-.2 0-.6-.1-1-.2-1.6-.6-1.7-1.2-1.9-1.9-.6-3-1.5-6-2.8-8.6-.6-1.2-2-3.2-2.2-4.5-.1-.7.8-1.8 1.7-2.2.5-.3 1.2.2 1.3.8.4 1.7.6 3.2 1.1 4.9.4.8.8 1.7 1.1 2.4 1.1 2.3 1.7 4.7 2.1 7.1 0 .6.8.9 1.1 1.1l1.5 1c-.4.1-.8.2-1.3.2-.2 0-.4 0-.7-.1m-11.6-16c-1.7-1.1-2.3-3-1.5-4.7 1.5-.2 3 .9 4.7 3.2-.6.6-.9 1.5-.9 2.3-.7-.6-1.6-.8-2.3-.8m4.1-6.2c.4-1.6 1.2-1.7 1.7-1.5.4.2.7.6.7 1v.9c-.2.8-1.4 2.4-1.2 3l-.8.4c-.6-1.3-.6-2.6-.4-3.8m42.6-1.7c1.9-1 3.9 0 4.3.6-1.1.8-2 1.3-3.2 3-.6.8-.8 2.6-.4 5.8l.3 1.7c-.6-1.2-2.9-1.5-2.9-1.5.6 1.5.5 2.5 0 3s-1.4.6-1.8.7c-.8.2-2.1-.1-2.8-.4-.7-.4-1.1-1.3-1.9-2.1-.2.8-.5 1.3-1.1 1.3-1.6 0-2.2-.1-5.1 1.1-.5.2-1.3.5-2.1.2-.7-.3-.9-.9-.8-2.6 0-.6.2-1.2.8-1.5.4-.2 1.7-.8 1.7-.8-1.7-.8-2.3-1.3-1.7-1.5 2.6-1.5 4.9-2.1 6.4-1.5.6.4 1.1.9 1.5 1.7 1.7.2 3.4-.2 4.9-.9 0-.4-.4-.5-.9-.6-1.4-.1-5.6-.8-5.6-.8-.4-2.1 1.3-3 5.1-3.2 0-1.3 1.7-1.3 5.3-.4 0 .1-.3-1.1 0-1.3m0-3.2c-1.2.8-2.5.6-3.6 2.4-5.4.8-8.7 2-8.6 2.8 0 .4.6 1.7.6 1.7-4.3.4-7.3 1.3-8.8 3.2l1.7 2.1v4.1c0 .8.5 1.6 1.5 1.7.6.1 1.2.7 1.7 1.7.2.5.9.9 1.5.7-.6-.7-.8-1.7-.6-2.4 0 0 2-.5 2.6-.6 3-.3 4.1 1.3 3.4 4.1-.4.8-1.1 1.3-2.1 1.5l-1.3-.8c0 .9 0 1.3-.4 1.1l-1.7-1.1c.6 1.3-.1 2.7.6 4.3.3.9 1.1 1.5 2.1 1.9-.1-.6-.5-1.1 0-1.9.6-1 2.7-1.3 3.8-.7 1.1.6 1.3 2.4.6 3.6l-.6.6c-.8.8-2.4.8-5.4 0-2.3-.8-4.5-.9-7-.6l2.3 1.5c-3.8.2-7.5-1.3-10.1-4.1v2.6s-.6 0-1.1-.3c-2.2-1.5-3.4-7-4.5-9.4-1.2-2.4-2.4-4.9-2.6-7.5-.2-1.1-.2-2.5-.8-3.6-1.3-2.3-2.6-4.7-4.1-7-1.3-1.9-3.2-2.1-5.8-.6 0 0 3.4.4 3.4 2.1-.6.9-.6 2.1-.4 3.2-.8-.9-1.8-1.7-3-1.9-1.1-.2-2.3-.4-3.4-.9-1.7-.8-3 0-3.8 2.3 1.3-.6 2.8-.4 3.9.6-.2 2.3 0 3.8.9 4.3 0 0-2.4 1.2-3.2 1.5-1.7.7-2.8 2.3-2.4 3.9 0 0 1.2-1 2.1-1.1 1.5-.3 6.2.8 6.2.8 1.5.4 3.9 2.8 4.3 5.3.3 1.9.4 5.3.7 7.9.3 3.2 1.2 5.9 4.8 10.3.6.8 1.1 1.5 2.1 2.1-.8.4-1.5.7-2.3.8h-1c-1.1 0-2.2-.2-3.2-.4-2.9-.7-4.3.2-9-2.1-.9-1.3-1.7-2.6-2.4-4.1-.4-.6-.9-1-1.7-1.1h-1.1l-2.6-.6c-1.3-.2-1.9.2-2.3.9-.4.6-.3 2.3-.3 2.3 2.3-1.7 4.1-.6 5.3 3.2.1.4 0 .6-.2.6-1.5 0-2.4.4-2.6.9-.2.4-.8 1.5-.8 1.5s-1.1.9-1.4 1.3c-.7 1-1 2.7 2.1 4.3-.4-2.1 0-3 1.1-3l1.9-.2s1.3-.2 1.7-.2c.2 0 .8.2.8.2l-.2.2c-.7.9-.6 2.3-.4 3.2 0 0-.1 1.8 0 2.4.2 1.4 1.7 2.3 3 2.4-.6-1.1-1.2-2.4-.4-3.5.7-1 1.6-1.8 2.8-2.1 1.4-.4 2.9-.1 5.6 1.9 3.6 2.6 4.6 1.6 6.6 3.8.6.8 1.1 1.4 2 2 0-.9.2-1.6.2-2.4 1.5 2.3 2.9 4.2 5.1 5.7l6.6 3.8c2.1 1.1 3.8 2.6 4.9 4.5-3-.9-6.2-1.5-9.4-1.9-2.1-.2-4 .3-4.8 3-.6 2.1-1.5 5.4-2.8 8.3-1.8 3.9-5.9 2.6-7.8 2.4-1.1-.1-2.6-.4-3.7-1-.3-.8-.5-1.5-.5-2.4.2-1.5-.2-2.8-.8-4.1-.4-.8-1.1-1.3-2.1-1.5 0 0-2.2-.6-3-.8-1.9-.3-3.8.8-4.3 2.6v.4c1.5-.9 2.8-1.1 3.6-.8.6.4.8 1.1.6 2.3-1.9-.6-3.9-.2-5.4.8-1.1.8-1.5 2.1-1.1 3.2 0 0 .7-.8 1.7-.9.6-.1 1.1 0 1.5.4l2.8 3.2s-1.3.8-1.7 1.1c-.8.6-3.7 3.8-.6 5.7.1 0 .1-.9 1-1.5.6-.4 1.3-.3 1.3-.3 1.3.2 2.8 0 4.1-.6 1.3 3 2.4 4.7 3.8 4.9.4-3.9 4.7-2.1 4.7-2.1.4.1 1 .7 1.4.9.8.5 1.8.6 1.8.6s-.6-.6-.8-1.2l-.1-.4c1.7.8 3.2 1.1 5.1 1.3v-1.7c1.1.8 2.3 1.3 3.6 1.7 0 0-1.3-2.3-.6-3.2.8-.9 2.1-2.4 2.1-2.4s.6.2.8.2c2.7.2 3.2-5.1 3.2-5.1 2.1.6 3.9 1.7 5.4 3.2l.9-.4 1.1 1.3c.4.6.8.6 1.3 0 0 0 1.1 1.8 2.6 2.4 0 0-.6-2.3 1.7-2.8 0 0-.3.8-.4 1-.2.8-.2 1.3-.2 1.3l1.1-1c0 1.7 0 3.5-.9 4.9-1.3 2-2.8 4.1-.9 6.6.5.7 1.2.8 1.9 2.1.6 1 .8 2.3 1.7 2.8.4-.6.8-1.3.9-2.1l2.8 2.4.6-3s6.3-1.9 8.5-2.1c2.8-.2 5.6-.2 8.3-.9-.4 2.3-.2 4.7.6 7-1.9 1.3-4.5 1.6-6.4.3-2.3-1.6-3-2.7-5.1-2.1-4-.7-4.2 1.4-4.2 1.4.8-.4 1.6.3 2.4.5-.1 1.9.9 2 2.4 2.8l-1.9 1.9c-1.9.8-2.6 2.3-1.9 4.5l1.5-1.5c.8-.4 1.5-.6 2.3-.4l1.5.4 1.5.2s-.7 2.9-1 4.2c-.2.9-.1 2.6.4 3.8 0 0 1-1.1 1.9-1.7.9-.6 1.4-.7 2.3-1.1 1.9-.8 2.4-2.1 2.6-3.8.1-.9.4-1.7 2.8-2.4 2.1-.4 3.9-.4 6-.4-.9-.8-1.1-2.4-.8-5.3.4-.2 2.3 1.8 2.3 1.8.2-.9.7-1.5.5-2.6-.2-.6-.3-.7-.7-1.1l1.3.8c.3-.9.2-1.8-.4-2.5l1.3 1.1c.2-.8 0-1.5-.2-2.3-.2-.7-.9-2.1-1.1-2.8-.1-.4-.3-1.1-.4-1.5-.3-1.9-.8-3.8-2.1-5.3-1.4-1.6-3.9-2.9-6.1-2.6-2.5.4-8.4.3-8.4.3l2.4-3 5.3.2c7.1 0 11.5-2.6 12.8-7.9.8-4.3-.3-9.4-3.6-14.8-2.1-3.5-3.8-7.1-4.3-11.1-.4-3.6.9-7.1 4.1-9.4 3.8-2.6 6.8-1.9 9.6 1.1-2.3 1.1-4.2 2.6-4.5 5.6-.1 1.1 0 2.4.6 3.6.4-.8.8-1.5 1.3-2.1 0 0-.1 2.5 0 3.4 0 0 .2 4.5 4.7 5.3-.8-1.1-1.4-2.4-1.5-3.8-.1-2.3 1.2-4.6 1.9-6.8.4-1.2.6-2.3.6-3.3v-.1c0-2.7-1.3-4.8-3.6-6.2-2.9-1.8-7.2-1.1-10 .9-3.6 2.6-6.2 6-6.4 10.7-.1 3.4.9 7.2 2.7 10.7 1.7 3.4 3.7 6.7 4.6 9.9 1.1 4.1-.6 7-3.8 8.5-2.8 1.5-6.3.8-8.1-1.9-2.4-3.7-4-6.3-8.6-10-3.3-2.6-4.7-6.4-4.7-11.6l2.6 2.8c-1.1-3.9-.8-7 1.1-9.4 0 2.4.4 3.8 1.1 4.1 0-1.3 0-2.6.6-3.8l3-3.6c.7-.9 1.1-2.1 1.1-3.4.8.9 1.7 1.7 2.8 2.3-.4-.8-.6-1.7-.6-2.6.2-1.5.9-2.7 1.9-3.6.9-.7 2.3-2.5 3-3.4 1.2-1.5 1.7-3.6 1.5-5.4.9.8 2.1 1.1 3.2 1.3l-1.5-3.2c-.4-1.1-.3-2.2.2-3.2 1.1-2.4.6-5.3-1.1-7.3 1.9.2 2.9 0 3.6-.9.1-.2.5-.9.5-.9-.9.4-2 .6-2.9.1-1.8-1-2.2-2.6-3.7-3.9 1.7-.6 2.8-2.1 2.8-3.8-.8.8-1.7 1.3-2.8 1.3-1.1 0-2.3-.8-3-1.7 0 0 .4-.2 1.1-2.2.2-.7.2-1.4.2-1.4-1.7.9-3.2 1.1-5.3 1.3-1.3-1.3-3-2.3-4.9-2.8.2-1.1-.2-2.3-.9-3.2-.1 1.1-.4 2-1.3 2.6"/>
        </defs>
        <clipPath id="SVGID_5_">
            <use overflow="visible" xlink:href="#SVGID_4_"/>
        </clipPath>
        <linearGradient id="SVGID_6_" x1="2294.19" x2="2295.19" y1="505.864" y2="505.864" gradientTransform="matrix(0 -119.4947 -119.4947 0 60636.55 274263.094)" gradientUnits="userSpaceOnUse">
            <stop offset="0" stop-color="#231f20"/>
            <stop offset="1" stop-color="#fff"/>
        </linearGradient>
        <path d="M140.1 0h96.7v119.5h-96.7z" class="st4"/>
    </g>
</svg>
