<svg xmlns="http://www.w3.org/2000/svg" viewBox="0 0 526.37 189.44"><defs><style>.cls-1{isolation:isolate;}.cls-2{mix-blend-mode:soft-light;}</style></defs><title>B&amp;amp;G_logo_new</title><g class="cls-1"><g id="Layer_1" data-name="Layer 1"><path d="M315.37,141.12a11.36,11.36,0,0,0,5.24-.28,10.69,10.69,0,0,1,9.93,1.66,7.31,7.31,0,0,1,3,5,3.61,3.61,0,0,1-2.54-.08,15.32,15.32,0,0,1-1.88-1.3v2.76a8.89,8.89,0,0,1-1.65-.83,17.19,17.19,0,0,1-1.93-3l-1.38,2.76L323.09,145a3.8,3.8,0,0,1-2.2,1.38l-.71-1.84a14.87,14.87,0,0,1-1.89,2.94,2.56,2.56,0,0,1-1.11.43,9.24,9.24,0,0,1-2.09.12c-11-1.31-13.79,1.66-13.79,1.66.28-2.21-.17-2.82-.44-5l-2.3,5s-.1-3.38-.2-4.5a3,3,0,0,0-1.76-2.75,19.06,19.06,0,0,1-2.2,8.63l-.1-3.65s-1.24.14-1.83,2a2.71,2.71,0,0,1-.4-2.56c.55-1.38,1.78-2.4,2.06-4.06a4.74,4.74,0,0,0-.56-3.31,12.69,12.69,0,0,1-1.93-8.28l1.38,1.66a16,16,0,0,0,1.11-8.83l1.1.55c0-7.72-2.25-12.15-9.82-14.16a4.68,4.68,0,0,1-3.15-2.94l3-.55s-.86-1.42-3.94-2.51a73.39,73.39,0,0,0-8.2-1.63c1.1,0,2.26-.41,2.54-1.31,0,0-6.41-.49-8.89-2.28a2.2,2.2,0,0,1,1.66-1.38,17,17,0,0,1,2.81,0l-1.43-1.93C278,97.05,281.44,95,281.44,95a4.29,4.29,0,0,1,.27-2.41,3.46,3.46,0,0,1,2.21-1.45l.83,4.41c.55,0,1.16-.7,1.51-2.86,1.11,1.93.52,2.16,1.28,4.61a2,2,0,0,0,1.15-1.1,3.16,3.16,0,0,0,.43-1.38,7.3,7.3,0,0,1,1.1,2.13c.44,1.7.66,3.23.66,3.23a4,4,0,0,0,.77-2.59,7.86,7.86,0,0,0-.28-2.86,28.64,28.64,0,0,1,3.86,8.27l.83-2.48a15.35,15.35,0,0,1,.55,5,13.33,13.33,0,0,1-.34,3.67s2.35,0,3.38-4a9.9,9.9,0,0,0,.27,3.31,6.69,6.69,0,0,0,1.34,2.79l1.15-1.68s5.36,4.69,7.17,7.44,2.48,4.42,1.1,5.24c-.55.28-1.08-.3-2.67.22l1,2a3.94,3.94,0,0,1-1.9,0c-.36-.2.93,2.94.93,2.94s-1-.68-1.36-.85a5.22,5.22,0,0,0-1.15-.36c2.77,6.32-1.49,8.67-.11,13.5.32,1.12,1.65,1.93,2.21,3a9.33,9.33,0,0,1,7.72-1.65m13.52,18.76s-1.92,2.42-.83,6.62c-5.41-.35-10.48,9.38-10.48,9.38l-1.66,2.48c-1.1,1.11-2,1.16-3,.28-.48-.4-.84-1.46-.28-3,1-2.79,2.88-3.71,4.69-5.24a4.32,4.32,0,0,0,1.1-4.14L317,168.15l-1.93-.82.28,1.93a6,6,0,0,1-6.62,1.93c-1.1-.28-1.38-1.38-.83-3a7.56,7.56,0,0,1,5-4.14,5.4,5.4,0,0,0-4.14,0,3,3,0,0,1-2.76-3.58c1.1-.55,3.21-.52,5.24,1.1a10.52,10.52,0,0,0,4.42,2.48c4.78.89,7.72,0,9.65-2.2a18.3,18.3,0,0,1-.55-10.21c1.38.28,3,2.21,4.69,5.79l-1.65-.27a4.16,4.16,0,0,0,1.1,2.76m-49.44-35.39s-.75.19-1.14-1.4a2.91,2.91,0,0,0-.83-1.37,4.8,4.8,0,0,0-.31,1.11,5.56,5.56,0,0,0,.13,1.18,13.43,13.43,0,0,0-5.24-5.79,16.93,16.93,0,0,1-4.37-3.39s-.22,1.09-.23,1.45a12.89,12.89,0,0,0,.22,1.48,1.64,1.64,0,0,1-1-.27c-.32-.19-1.65-.78-1.65-.78s.12,1.66.16,2.1a3,3,0,0,1-.21,1.79s-.16,0-.64-.61a5.15,5.15,0,0,0-1.11-1s0,1.16.06,2c0,.55.21,2.16.21,2.16l-1.65-1.65s-.8,1.14-.33,4.93c.31,2.43,2.52,4.39,2.41,4.61,0,0-1.22-.33-3.69-2.53-.43-.39-1.65-1.66-1.65-1.66a11.55,11.55,0,0,0,.5,5.41l-1.93-2.21a16.3,16.3,0,0,1-1.38,6.07L254.65,135a3,3,0,0,0-2.35-1.1,13.86,13.86,0,0,1,.24,2.07c-.18.22-1.33-1.25-2.7-1.51s-2.8.1-5.52.65a2.41,2.41,0,0,1-2.06-.63l-2.13-1.9a3.23,3.23,0,0,0,0,1.56,5.21,5.21,0,0,0,.64,1.63l-2.88-2.39c-.27,3.31-.82,5.24-1.93,5.79v-1.93a2.73,2.73,0,0,1-.82,0c-.26-.1-.57-.52,0-1.1,1.4-1.43,1.65-2.76,1.1-5.24-.83,2.48-1.93,3.86-3.31,3.58a10.53,10.53,0,0,0-.74-1.82c-.52-1.07-1.19-.94-1.19-.94a15.38,15.38,0,0,1,0,2.76c-.29,1.21-1.66,1.79-3,1.66s-2.62-1.86-2-3.12A3.51,3.51,0,0,1,227,132c4.21-2.68,7-3.51,13.68-1.09a18.25,18.25,0,0,0,7.63.87,8.43,8.43,0,0,0,2.76-.82,3.83,3.83,0,0,1,3.86.82s-.48-4.28,1.1-7.17a14.62,14.62,0,0,1,1.38-1.65v-1.38c.28-3.31,1.43-6.88,4.14-9.11a5.5,5.5,0,0,1,5.24-.82,12.18,12.18,0,0,1,7.73,6.06,2.37,2.37,0,0,0,1.65-.82l2.49,3.31a9.59,9.59,0,0,0,.27-2.76l3.31,2.76a6.74,6.74,0,0,0-2.81,4.34m-53.19,2.83c-1.33-.3-.29-1.69-1.43-2.73a3.75,3.75,0,0,0-1.33-.58,6.78,6.78,0,0,1,8.83,1.38c0,1.1-.28,1.65-.83,1.93a2.21,2.21,0,0,1-2.48-1.38Zm5-9.93c1.11-.28,1.93.55,2.76,3-1.1.28-1.65,1.11-1.93,2.49a5,5,0,0,1-3-2.76,2.46,2.46,0,0,1,2.2-2.76m29.53-36.87s-.09.59-.09.79.08.77.08.77a4.1,4.1,0,0,1-2.09-.62,21.56,21.56,0,0,1-2.29-1.58,2,2,0,0,0-.15,1.39c.07.35.39,1.36.39,1.36a5,5,0,0,1-4.38-1.78,2.46,2.46,0,0,0-.44.73,1.92,1.92,0,0,0,.13,1.32c-.92.47-3.26.16-4.33,0-2.68-.41-1.45-2.52-4.68-2.52a4,4,0,0,0-1.37.29l.45.86s-2.11.28-3.1-.74a22.73,22.73,0,0,1-1.71-2.18,2.1,2.1,0,0,1-2.08,1.54l-.56-2.2a3.48,3.48,0,0,0-2.75,1.65,4.18,4.18,0,0,0-.6,2.69,1.66,1.66,0,0,1-.8.53,2.2,2.2,0,0,1-1.17-.11s.52,1.11.34,1.44c-.67,1.23-3,.58-3.57-.69a4.45,4.45,0,0,1,.28-2.48c.09-.24.47-.93.47-.93,1-2.26,2.1-2.16,3.67-2.93.44-.22,1.65-1.11,1.65-1.11-4.69-.27-7.72.28-8.83,1.66a1.94,1.94,0,0,0-1.67-.77,5.83,5.83,0,0,0-1.36.49,11.18,11.18,0,0,1-1-1c-.46-.61-.27-.84-.11-1a11.37,11.37,0,0,1,8.56-1.65s10.11,2,13.51,2.48a42.61,42.61,0,0,0,4.95.83,16.34,16.34,0,0,0,3.37-.61,10.42,10.42,0,0,0,6.86-4.63s1.59,2.1.87,2.61c-3.09,2.17-1.57,3.37-1.57,3.37,1.93-1.1,2.17-1,3.7-.67,5,1,6.65,1.31,8.86.2a9.35,9.35,0,0,0-.55,5c.08.44.73,2.46.25,1.79-1.56-2.21-3.62-2-5.07-2.25a4.77,4.77,0,0,1-2.07-1.37M221.67,67.08a28.13,28.13,0,0,0-1.82-2.25c4.69-.3,5.86,3.17,8.06,7.31l-4,.1a30.56,30.56,0,0,0-2.25-5.16m30.27-14.47a5.37,5.37,0,0,1-1.4-.33c-2.31-.9-2.57-1.8-2.76-2.76a52.58,52.58,0,0,0-4.14-12.69c-.85-1.71-2.93-4.76-3.26-6.64-.18-1.06,1.21-2.65,2.43-3.29a1.45,1.45,0,0,1,1.93,1.1,66.77,66.77,0,0,0,1.66,7.18c.55,1.1,1.1,2.48,1.65,3.58a35,35,0,0,1,3,10.49c.06.9,1.14,1.36,1.65,1.65s2.17,1.44,2.17,1.44a6.25,6.25,0,0,1-3,.27M234.69,33.43c-1.33.35-2.36,1.19-3.74.36a1.91,1.91,0,0,1-.83-2.75c2-2.72,6.25-.83,9.73,4.45,0,0-3.95-2.38-5.16-2.06M232.6,22.21c2.21-.28,4.42,1.38,6.9,4.69a5.07,5.07,0,0,0-1.38,3.31,4.82,4.82,0,0,0-3.31-1.11,5.45,5.45,0,0,1-2.21-6.89M240.88,20c.62-2.41,1.7-2.46,2.45-2.14a1.89,1.89,0,0,1,1.06,1.43,5.51,5.51,0,0,1,0,1.33c-.29,1.24-2.1,3.6-1.83,4.35l-1.1.55a9.7,9.7,0,0,1-.55-5.52M265.1,59.37l-1.32-4.06a19.1,19.1,0,0,0,11.31,5.52,15,15,0,0,1-12.42.24,5.47,5.47,0,0,1-2.75-2.72c1.65.27,3.41.56,5.18,1m15.51,2.29a9.11,9.11,0,0,1,6.62,0c2.21.83,4.36.55,6.62.27.55-.06.83-.27.83-1.1v-1.5a3,3,0,0,1,1.05-2.19s.67-1,4.19-1.55a6.71,6.71,0,0,1,2.49,0l-1.66,3.86c1.93-.55,5.78-.93,8.24-5.52a7.13,7.13,0,0,1-.72,8c-1.67,2.14-3.17,1.81-5.35,3.23l4.24-.29s-.29,1.35-.34,1.8a13.14,13.14,0,0,1-1,4.22,14.71,14.71,0,0,1-2.91,4.24,16.93,16.93,0,0,1,2.05-.6c.71-.12,1-.13,1.32.15l-1.38,1.65a5.94,5.94,0,0,1,3-.55,12.79,12.79,0,0,1-5,3.59c-4.1,1.67-5.59,4.62-6.07,8.27a9.64,9.64,0,0,0,.11,2.9c.19.64-1.74-1.69-2.18-2.36-2.57-3.93-.69-9.92,3.72-16.26a12.93,12.93,0,0,0-5.24,5L293,73a17.38,17.38,0,0,1-6.59,4.4c-2.76,1.38-4.17,4.15-4.72,7.46-1.37-5.24-1-6.39-.24-8.31A11.46,11.46,0,0,1,283,74.06a65.55,65.55,0,0,0,4.49-5,19.86,19.86,0,0,1-7.18,3.58,25.39,25.39,0,0,0-5.51,1.66c1.45-2.39,3.84-2.21,6.06-3.59a4.75,4.75,0,0,0,1.94-4.14,9.73,9.73,0,0,1-10.49,3.59,22.36,22.36,0,0,0-8.55,0c-.28,0-.2-.18-.1-.44.73-2,3.35-3.19,5.62-3.42,1.71-.18,5.19.48,6.92.6s3.29-1.15,4.11-2.81a17.2,17.2,0,0,1-7.45-.83c2.21.56,5-.27,7.73-1.65m10.76-28.43c-.28,1.11-.79,1.92-1.66,1.94-2.28,0-3.25-.1-7.45,1.65a4,4,0,0,1-3,.28c-1.05-.43-1.38-1.37-1.11-3.86a2.34,2.34,0,0,1,1.11-2.2c.59-.33,2.48-1.11,2.48-1.11-2.48-1.1-3.31-1.93-2.48-2.2,3.86-2.21,7.17-3,9.38-2.21A6.49,6.49,0,0,1,290.82,28,12.82,12.82,0,0,0,298,26.62c0-.55-.55-.77-1.38-.83-2.08-.14-8.28-1.1-8.28-1.1-.55-3,1.94-4.41,7.45-4.69,0-1.93,2.48-1.93,7.73-.55,0,0-.43-1.71,0-1.93,2.75-1.41,5.79,0,6.34.82a14.93,14.93,0,0,0-4.69,4.42c-.83,1.1-1.1,3.86-.55,8.55l.46,2.45c-.85-1.73-4.2-2.23-4.2-2.23.87,2.2.77,3.65,0,4.42a5.41,5.41,0,0,1-2.68,1,7.21,7.21,0,0,1-4-.65c-1-.58-1.66-1.94-2.76-3.05m58.76,33.39C345.92,64,339.57,65,335.51,68c-5.25,3.85-9.18,8.84-9.38,15.73-.15,4.94,1.39,10.54,4,15.74,2.5,5,5.47,9.8,6.75,14.61,1.58,6-.83,10.21-5.52,12.41a9,9,0,0,1-11.86-2.75c-3.53-5.38-5.82-9.21-12.69-14.63-4.77-3.76-6.9-9.38-6.9-17.1l3.86,4.14c-1.65-5.8-1.1-10.21,1.66-13.8,0,3.59.55,5.52,1.65,6.07a12.22,12.22,0,0,1,.83-5.52l4.42-5.24a7.71,7.71,0,0,0,1.65-5A12,12,0,0,0,318.13,76a8.81,8.81,0,0,1-.83-3.86,8.1,8.1,0,0,1,2.76-5.24,46.33,46.33,0,0,0,4.41-5,11.5,11.5,0,0,0,2.21-8,9.91,9.91,0,0,0,4.69,1.93l-2.21-4.69a6,6,0,0,1,.28-4.68,10.22,10.22,0,0,0-1.65-10.76c2.75.27,4.25,0,5.35-1.38a12.38,12.38,0,0,0,.71-1.38,5.13,5.13,0,0,1-4.19.17c-2.63-1.4-3.26-3.76-5.46-5.69a5.89,5.89,0,0,0,4.14-5.52,5.85,5.85,0,0,1-4.14,1.93,6.05,6.05,0,0,1-4.42-2.48s.65-.32,1.63-3.17a7.11,7.11,0,0,0,.33-2c-2.49,1.37-4.72,1.6-7.75,1.88a17,17,0,0,0-7.17-4.14,6,6,0,0,0-1.38-4.69,5.13,5.13,0,0,1-1.93,3.59c-1.74,1.17-3.6.94-5.25,3.58-8,1.11-12.74,2.89-12.69,4.14A12.44,12.44,0,0,0,286.4,23c-6.34.56-10.76,1.94-13,4.7l2.49,3v6.07a2.47,2.47,0,0,0,2.2,2.48c.87.1,1.81,1,2.49,2.49a2,2,0,0,0,2.21,1.1,4.38,4.38,0,0,1-.83-3.59s2.88-.72,3.86-.83c4.39-.46,6.07,1.93,5,6.07a4.25,4.25,0,0,1-3,2.21l-1.93-1.1c0,1.38,0,1.93-.55,1.65l-2.48-1.65c.82,1.93-.09,3.91.82,6.34a5.11,5.11,0,0,0,3,2.76c-.12-.88-.71-1.62,0-2.76.95-1.53,4-1.84,5.52-1.1,1.65.82,1.93,3.59.82,5.24l-.82.83c-1.11,1.1-3.59,1.1-8,0A21.19,21.19,0,0,0,274,56.14l3.31,2.21a19.2,19.2,0,0,1-14.9-6.07v3.86a3.05,3.05,0,0,1-1.62-.47c-3.24-2.19-4.95-10.35-6.66-13.87s-3.58-7.18-3.86-11c-.28-1.66-.24-3.73-1.1-5.24-1.9-3.31-3.87-6.9-6.07-10.21-1.94-2.76-4.69-3-8.56-.83,0,0,5,.62,5,3a6.76,6.76,0,0,0-.55,4.69,7.41,7.41,0,0,0-4.42-2.76,16.63,16.63,0,0,1-5-1.38c-2.48-1.1-4.41,0-5.52,3.31a5.56,5.56,0,0,1,5.8.83c-.28,3.31,0,5.52,1.37,6.34,0,0-3.48,1.73-4.69,2.21-2.43,1-4.13,3.31-3.58,5.79a9,9,0,0,1,3-1.65c2.26-.43,9.11,1.1,9.11,1.1,2.2.55,5.68,4.1,6.34,7.73.51,2.73.55,7.77,1,11.56.5,4.66,1.69,8.66,7,15.2a10.69,10.69,0,0,0,3,3,10.43,10.43,0,0,1-3.31,1.11c-.21,0-.83,0-.83,0h-.55a21.14,21.14,0,0,1-4.69-.56c-4.32-1-6.25.36-13.24-3A42.34,42.34,0,0,1,226.26,65a3.5,3.5,0,0,0-2.49-1.66c-.41-.05-1.65,0-1.65,0l-3.86-.82c-1.93-.28-2.81.33-3.42,1.29s-.45,3.4-.45,3.4c3.4-2.44,6.07-.83,7.73,4.69.17.52.06.84-.28.82-2.2,0-3.52.58-3.86,1.38-.23.57-1.1,2.21-1.1,2.21a13.86,13.86,0,0,0-2,2c-1,1.48-1.53,3.9,3.11,6.33-.55-3,0-4.42,1.66-4.42l2.76-.27a18.38,18.38,0,0,1,2.48-.28,8.37,8.37,0,0,1,1.1.28s-.21.2-.27.27c-1,1.27-.83,3.31-.55,4.69a31.93,31.93,0,0,0,0,3.59c.27,2,2.48,3.31,4.41,3.59-.83-1.66-1.7-3.5-.59-5.17a7.09,7.09,0,0,1,4.17-3.11c2.1-.52,4.28-.08,8.21,2.74,5.26,3.76,6.82,2.31,9.73,5.54A9.75,9.75,0,0,0,254,94.89c0-1.33.26-2.39.26-3.5,2.2,3.31,4.25,6.14,7.56,8.34l9.65,5.52a18.55,18.55,0,0,1,7.18,6.62,77.19,77.19,0,0,0-13.8-2.76c-3-.27-5.84.4-7,4.47a83.57,83.57,0,0,1-4.12,12.16c-2.63,5.79-8.62,3.88-11.52,3.51a17,17,0,0,1-5.39-1.41,9.47,9.47,0,0,1-.68-3.55,11.41,11.41,0,0,0-1.1-6.07,4.29,4.29,0,0,0-3-2.21s-3.29-.91-4.41-1.1a5.61,5.61,0,0,0-6.35,3.86v.55c2.21-1.38,4.14-1.66,5.24-1.1.83.55,1.11,1.65.83,3.31a10,10,0,0,0-8,1.1,4.06,4.06,0,0,0-1.65,4.69,5.18,5.18,0,0,1,2.48-1.38,2.41,2.41,0,0,1,2.21.55l4.13,4.69s-1.88,1.21-2.48,1.66c-1.17.88-5.36,5.62-.89,8.41a4.47,4.47,0,0,1,1.46-2.2,3,3,0,0,1,1.91-.42,11.67,11.67,0,0,0,6.07-.82c1.93,4.41,3.59,6.89,5.52,7.17.58-5.76,6.9-3,6.9-3a14,14,0,0,1,2,1.34,6.33,6.33,0,0,0,2.66.87,4.87,4.87,0,0,1-1.2-1.81c0-.07-.16-.65-.16-.65a22.93,22.93,0,0,0,7.43,1.91v-2.48A18.27,18.27,0,0,0,261,143.6s-2-3.32-.83-4.69,3-3.59,3-3.59a10.38,10.38,0,0,0,1.1.28c3.93.36,4.69-7.45,4.69-7.45a18,18,0,0,1,8,4.69l1.38-.55,1.66,1.93c.55.83,1.1.83,1.93,0a10.3,10.3,0,0,0,3.86,3.59s-.85-3.37,2.48-4.14c0,0-.42,1.14-.53,1.54a5.64,5.64,0,0,0-.26,1.88l1.62-1.49c0,2.48-.05,5.09-1.38,7.17-1.9,3-4.06,6-1.38,9.66.73,1,1.76,1.22,2.76,3,.81,1.47,1.11,3.31,2.48,4.14a9.89,9.89,0,0,0,1.38-3l4.14,3.58.83-4.41s9.23-2.76,12.41-3c4.14-.36,8.28-.27,12.14-1.38a21.57,21.57,0,0,0,.83,10.21c-2.76,1.93-6.67,2.35-9.36.39-3.32-2.41-4.48-3.9-7.47-3.15-5.84-1-6.16,2.11-6.16,2.11,1.11-.55,2.41.43,3.52.71-.11,2.84,1.26,3,3.47,4.08l-2.76,2.76c-2.76,1.1-3.86,3.31-2.76,6.62l2.21-2.21a4.79,4.79,0,0,1,3.31-.55l2.21.55,2.2.28s-1,4.31-1.4,6.1a10.65,10.65,0,0,0,.53,5.51,21.15,21.15,0,0,1,2.74-2.52,14.12,14.12,0,0,1,3.37-1.64c2.75-1.16,3.59-3,3.87-5.52.15-1.36.57-2.54,4.14-3.59a47.52,47.52,0,0,1,8.82-.55c-1.37-1.1-1.65-3.58-1.1-7.72.53-.35,3.34,2.71,3.34,2.71.28-1.38,1.08-2.16.8-3.82a2.79,2.79,0,0,0-1.08-1.54l2,1.14a3.88,3.88,0,0,0-.6-3.74l1.93,1.66a6.05,6.05,0,0,0-.28-3.31c-.34-1.06-1.29-3.09-1.65-4.14a17.87,17.87,0,0,1-.56-2.21c-.47-2.73-1.22-5.64-3-7.72-2.05-2.36-5.74-4.24-8.94-3.77a121.69,121.69,0,0,1-12.3.46l3.58-4.42,7.73.28c10.48,0,16.83-3.86,18.76-11.59,1.1-6.34-.43-13.74-5.24-21.79-3.07-5.12-5.63-10.47-6.35-16.28a14.26,14.26,0,0,1,6.07-13.8c5.51-3.86,9.93-2.75,14.07,1.66-3.31,1.66-6.09,3.81-6.62,8.28a9.41,9.41,0,0,0,.83,5.24,11.41,11.41,0,0,1,1.93-3,41.88,41.88,0,0,0,0,5s.32,6.61,6.9,7.73a11.37,11.37,0,0,1-2.21-5.52c-.19-3.35,1.75-6.76,2.76-9.93,2-6.4.22-11.23-4.42-14.08"/><path class="cls-2" d="M315.37,141.12a11.36,11.36,0,0,0,5.24-.28,10.69,10.69,0,0,1,9.93,1.66,7.31,7.31,0,0,1,3,5,3.61,3.61,0,0,1-2.54-.08,15.32,15.32,0,0,1-1.88-1.3v2.76a8.89,8.89,0,0,1-1.65-.83,17.19,17.19,0,0,1-1.93-3l-1.38,2.76L323.09,145a3.8,3.8,0,0,1-2.2,1.38l-.71-1.84a14.87,14.87,0,0,1-1.89,2.94,2.56,2.56,0,0,1-1.11.43,9.24,9.24,0,0,1-2.09.12c-11-1.31-13.79,1.66-13.79,1.66.28-2.21-.17-2.82-.44-5l-2.3,5s-.1-3.38-.2-4.5a3,3,0,0,0-1.76-2.75,19.06,19.06,0,0,1-2.2,8.63l-.1-3.65s-1.24.14-1.83,2a2.71,2.71,0,0,1-.4-2.56c.55-1.38,1.78-2.4,2.06-4.06a4.74,4.74,0,0,0-.56-3.31,12.69,12.69,0,0,1-1.93-8.28l1.38,1.66a16,16,0,0,0,1.11-8.83l1.1.55c0-7.72-2.25-12.15-9.82-14.16a4.68,4.68,0,0,1-3.15-2.94l3-.55s-.86-1.42-3.94-2.51a73.39,73.39,0,0,0-8.2-1.63c1.1,0,2.26-.41,2.54-1.31,0,0-6.41-.49-8.89-2.28a2.2,2.2,0,0,1,1.66-1.38,17,17,0,0,1,2.81,0l-1.43-1.93C278,97.05,281.44,95,281.44,95a4.29,4.29,0,0,1,.27-2.41,3.46,3.46,0,0,1,2.21-1.45l.83,4.41c.55,0,1.16-.7,1.51-2.86,1.11,1.93.52,2.16,1.28,4.61a2,2,0,0,0,1.15-1.1,3.16,3.16,0,0,0,.43-1.38,7.3,7.3,0,0,1,1.1,2.13c.44,1.7.66,3.23.66,3.23a4,4,0,0,0,.77-2.59,7.86,7.86,0,0,0-.28-2.86,28.64,28.64,0,0,1,3.86,8.27l.83-2.48a15.35,15.35,0,0,1,.55,5,13.33,13.33,0,0,1-.34,3.67s2.35,0,3.38-4a9.9,9.9,0,0,0,.27,3.31,6.69,6.69,0,0,0,1.34,2.79l1.15-1.68s5.36,4.69,7.17,7.44,2.48,4.42,1.1,5.24c-.55.28-1.08-.3-2.67.22l1,2a3.94,3.94,0,0,1-1.9,0c-.36-.2.93,2.94.93,2.94s-1-.68-1.36-.85a5.22,5.22,0,0,0-1.15-.36c2.77,6.32-1.49,8.67-.11,13.5.32,1.12,1.65,1.93,2.21,3a9.33,9.33,0,0,1,7.72-1.65m13.52,18.76s-1.92,2.42-.83,6.62c-5.41-.35-10.48,9.38-10.48,9.38l-1.66,2.48c-1.1,1.11-2,1.16-3,.28-.48-.4-.84-1.46-.28-3,1-2.79,2.88-3.71,4.69-5.24a4.32,4.32,0,0,0,1.1-4.14L317,168.15l-1.93-.82.28,1.93a6,6,0,0,1-6.62,1.93c-1.1-.28-1.38-1.38-.83-3a7.56,7.56,0,0,1,5-4.14,5.4,5.4,0,0,0-4.14,0,3,3,0,0,1-2.76-3.58c1.1-.55,3.21-.52,5.24,1.1a10.52,10.52,0,0,0,4.42,2.48c4.78.89,7.72,0,9.65-2.2a18.3,18.3,0,0,1-.55-10.21c1.38.28,3,2.21,4.69,5.79l-1.65-.27a4.16,4.16,0,0,0,1.1,2.76m-49.44-35.39s-.75.19-1.14-1.4a2.91,2.91,0,0,0-.83-1.37,4.8,4.8,0,0,0-.31,1.11,5.56,5.56,0,0,0,.13,1.18,13.43,13.43,0,0,0-5.24-5.79,16.93,16.93,0,0,1-4.37-3.39s-.22,1.09-.23,1.45a12.89,12.89,0,0,0,.22,1.48,1.64,1.64,0,0,1-1-.27c-.32-.19-1.65-.78-1.65-.78s.12,1.66.16,2.1a3,3,0,0,1-.21,1.79s-.16,0-.64-.61a5.15,5.15,0,0,0-1.11-1s0,1.16.06,2c0,.55.21,2.16.21,2.16l-1.65-1.65s-.8,1.14-.33,4.93c.31,2.43,2.52,4.39,2.41,4.61,0,0-1.22-.33-3.69-2.53-.43-.39-1.65-1.66-1.65-1.66a11.55,11.55,0,0,0,.5,5.41l-1.93-2.21a16.3,16.3,0,0,1-1.38,6.07L254.65,135a3,3,0,0,0-2.35-1.1,13.86,13.86,0,0,1,.24,2.07c-.18.22-1.33-1.25-2.7-1.51s-2.8.1-5.52.65a2.41,2.41,0,0,1-2.06-.63l-2.13-1.9a3.23,3.23,0,0,0,0,1.56,5.21,5.21,0,0,0,.64,1.63l-2.88-2.39c-.27,3.31-.82,5.24-1.93,5.79v-1.93a2.73,2.73,0,0,1-.82,0c-.26-.1-.57-.52,0-1.1,1.4-1.43,1.65-2.76,1.1-5.24-.83,2.48-1.93,3.86-3.31,3.58a10.53,10.53,0,0,0-.74-1.82c-.52-1.07-1.19-.94-1.19-.94a15.38,15.38,0,0,1,0,2.76c-.29,1.21-1.66,1.79-3,1.66s-2.62-1.86-2-3.12A3.51,3.51,0,0,1,227,132c4.21-2.68,7-3.51,13.68-1.09a18.25,18.25,0,0,0,7.63.87,8.43,8.43,0,0,0,2.76-.82,3.83,3.83,0,0,1,3.86.82s-.48-4.28,1.1-7.17a14.62,14.62,0,0,1,1.38-1.65v-1.38c.28-3.31,1.43-6.88,4.14-9.11a5.5,5.5,0,0,1,5.24-.82,12.18,12.18,0,0,1,7.73,6.06,2.37,2.37,0,0,0,1.65-.82l2.49,3.31a9.59,9.59,0,0,0,.27-2.76l3.31,2.76a6.74,6.74,0,0,0-2.81,4.34m-53.19,2.83c-1.33-.3-.29-1.69-1.43-2.73a3.75,3.75,0,0,0-1.33-.58,6.78,6.78,0,0,1,8.83,1.38c0,1.1-.28,1.65-.83,1.93a2.21,2.21,0,0,1-2.48-1.38Zm5-9.93c1.11-.28,1.93.55,2.76,3-1.1.28-1.65,1.11-1.93,2.49a5,5,0,0,1-3-2.76,2.46,2.46,0,0,1,2.2-2.76m29.53-36.87s-.09.59-.09.79.08.77.08.77a4.1,4.1,0,0,1-2.09-.62,21.56,21.56,0,0,1-2.29-1.58,2,2,0,0,0-.15,1.39c.07.35.39,1.36.39,1.36a5,5,0,0,1-4.38-1.78,2.46,2.46,0,0,0-.44.73,1.92,1.92,0,0,0,.13,1.32c-.92.47-3.26.16-4.33,0-2.68-.41-1.45-2.52-4.68-2.52a4,4,0,0,0-1.37.29l.45.86s-2.11.28-3.1-.74a22.73,22.73,0,0,1-1.71-2.18,2.1,2.1,0,0,1-2.08,1.54l-.56-2.2a3.48,3.48,0,0,0-2.75,1.65,4.18,4.18,0,0,0-.6,2.69,1.66,1.66,0,0,1-.8.53,2.2,2.2,0,0,1-1.17-.11s.52,1.11.34,1.44c-.67,1.23-3,.58-3.57-.69a4.45,4.45,0,0,1,.28-2.48c.09-.24.47-.93.47-.93,1-2.26,2.1-2.16,3.67-2.93.44-.22,1.65-1.11,1.65-1.11-4.69-.27-7.72.28-8.83,1.66a1.94,1.94,0,0,0-1.67-.77,5.83,5.83,0,0,0-1.36.49,11.18,11.18,0,0,1-1-1c-.46-.61-.27-.84-.11-1a11.37,11.37,0,0,1,8.56-1.65s10.11,2,13.51,2.48a42.61,42.61,0,0,0,4.95.83,16.34,16.34,0,0,0,3.37-.61,10.42,10.42,0,0,0,6.86-4.63s1.59,2.1.87,2.61c-3.09,2.17-1.57,3.37-1.57,3.37,1.93-1.1,2.17-1,3.7-.67,5,1,6.65,1.31,8.86.2a9.35,9.35,0,0,0-.55,5c.08.44.73,2.46.25,1.79-1.56-2.21-3.62-2-5.07-2.25a4.77,4.77,0,0,1-2.07-1.37M221.67,67.08a28.13,28.13,0,0,0-1.82-2.25c4.69-.3,5.86,3.17,8.06,7.31l-4,.1a30.56,30.56,0,0,0-2.25-5.16m30.27-14.47a5.37,5.37,0,0,1-1.4-.33c-2.31-.9-2.57-1.8-2.76-2.76a52.58,52.58,0,0,0-4.14-12.69c-.85-1.71-2.93-4.76-3.26-6.64-.18-1.06,1.21-2.65,2.43-3.29a1.45,1.45,0,0,1,1.93,1.1,66.77,66.77,0,0,0,1.66,7.18c.55,1.1,1.1,2.48,1.65,3.58a35,35,0,0,1,3,10.49c.06.9,1.14,1.36,1.65,1.65s2.17,1.44,2.17,1.44a6.25,6.25,0,0,1-3,.27M234.69,33.43c-1.33.35-2.36,1.19-3.74.36a1.91,1.91,0,0,1-.83-2.75c2-2.72,6.25-.83,9.73,4.45,0,0-3.95-2.38-5.16-2.06M232.6,22.21c2.21-.28,4.42,1.38,6.9,4.69a5.07,5.07,0,0,0-1.38,3.31,4.82,4.82,0,0,0-3.31-1.11,5.45,5.45,0,0,1-2.21-6.89M240.88,20c.62-2.41,1.7-2.46,2.45-2.14a1.89,1.89,0,0,1,1.06,1.43,5.51,5.51,0,0,1,0,1.33c-.29,1.24-2.1,3.6-1.83,4.35l-1.1.55a9.7,9.7,0,0,1-.55-5.52M265.1,59.37l-1.32-4.06a19.1,19.1,0,0,0,11.31,5.52,15,15,0,0,1-12.42.24,5.47,5.47,0,0,1-2.75-2.72c1.65.27,3.41.56,5.18,1m15.51,2.29a9.11,9.11,0,0,1,6.62,0c2.21.83,4.36.55,6.62.27.55-.06.83-.27.83-1.1v-1.5a3,3,0,0,1,1.05-2.19s.67-1,4.19-1.55a6.71,6.71,0,0,1,2.49,0l-1.66,3.86c1.93-.55,5.78-.93,8.24-5.52a7.13,7.13,0,0,1-.72,8c-1.67,2.14-3.17,1.81-5.35,3.23l4.24-.29s-.29,1.35-.34,1.8a13.14,13.14,0,0,1-1,4.22,14.71,14.71,0,0,1-2.91,4.24,16.93,16.93,0,0,1,2.05-.6c.71-.12,1-.13,1.32.15l-1.38,1.65a5.94,5.94,0,0,1,3-.55,12.79,12.79,0,0,1-5,3.59c-4.1,1.67-5.59,4.62-6.07,8.27a9.64,9.64,0,0,0,.11,2.9c.19.64-1.74-1.69-2.18-2.36-2.57-3.93-.69-9.92,3.72-16.26a12.93,12.93,0,0,0-5.24,5L293,73a17.38,17.38,0,0,1-6.59,4.4c-2.76,1.38-4.17,4.15-4.72,7.46-1.37-5.24-1-6.39-.24-8.31A11.46,11.46,0,0,1,283,74.06a65.55,65.55,0,0,0,4.49-5,19.86,19.86,0,0,1-7.18,3.58,25.39,25.39,0,0,0-5.51,1.66c1.45-2.39,3.84-2.21,6.06-3.59a4.75,4.75,0,0,0,1.94-4.14,9.73,9.73,0,0,1-10.49,3.59,22.36,22.36,0,0,0-8.55,0c-.28,0-.2-.18-.1-.44.73-2,3.35-3.19,5.62-3.42,1.71-.18,5.19.48,6.92.6s3.29-1.15,4.11-2.81a17.2,17.2,0,0,1-7.45-.83c2.21.56,5-.27,7.73-1.65m10.76-28.43c-.28,1.11-.79,1.92-1.66,1.94-2.28,0-3.25-.1-7.45,1.65a4,4,0,0,1-3,.28c-1.05-.43-1.38-1.37-1.11-3.86a2.34,2.34,0,0,1,1.11-2.2c.59-.33,2.48-1.11,2.48-1.11-2.48-1.1-3.31-1.93-2.48-2.2,3.86-2.21,7.17-3,9.38-2.21A6.49,6.49,0,0,1,290.82,28,12.82,12.82,0,0,0,298,26.62c0-.55-.55-.77-1.38-.83-2.08-.14-8.28-1.1-8.28-1.1-.55-3,1.94-4.41,7.45-4.69,0-1.93,2.48-1.93,7.73-.55,0,0-.43-1.71,0-1.93,2.75-1.41,5.79,0,6.34.82a14.93,14.93,0,0,0-4.69,4.42c-.83,1.1-1.1,3.86-.55,8.55l.46,2.45c-.85-1.73-4.2-2.23-4.2-2.23.87,2.2.77,3.65,0,4.42a5.41,5.41,0,0,1-2.68,1,7.21,7.21,0,0,1-4-.65c-1-.58-1.66-1.94-2.76-3.05m58.76,33.39C345.92,64,339.57,65,335.51,68c-5.25,3.85-9.18,8.84-9.38,15.73-.15,4.94,1.39,10.54,4,15.74,2.5,5,5.47,9.8,6.75,14.61,1.58,6-.83,10.21-5.52,12.41a9,9,0,0,1-11.86-2.75c-3.53-5.38-5.82-9.21-12.69-14.63-4.77-3.76-6.9-9.38-6.9-17.1l3.86,4.14c-1.65-5.8-1.1-10.21,1.66-13.8,0,3.59.55,5.52,1.65,6.07a12.22,12.22,0,0,1,.83-5.52l4.42-5.24a7.71,7.71,0,0,0,1.65-5A12,12,0,0,0,318.13,76a8.81,8.81,0,0,1-.83-3.86,8.1,8.1,0,0,1,2.76-5.24,46.33,46.33,0,0,0,4.41-5,11.5,11.5,0,0,0,2.21-8,9.91,9.91,0,0,0,4.69,1.93l-2.21-4.69a6,6,0,0,1,.28-4.68,10.22,10.22,0,0,0-1.65-10.76c2.75.27,4.25,0,5.35-1.38a12.38,12.38,0,0,0,.71-1.38,5.13,5.13,0,0,1-4.19.17c-2.63-1.4-3.26-3.76-5.46-5.69a5.89,5.89,0,0,0,4.14-5.52,5.85,5.85,0,0,1-4.14,1.93,6.05,6.05,0,0,1-4.42-2.48s.65-.32,1.63-3.17a7.11,7.11,0,0,0,.33-2c-2.49,1.37-4.72,1.6-7.75,1.88a17,17,0,0,0-7.17-4.14,6,6,0,0,0-1.38-4.69,5.13,5.13,0,0,1-1.93,3.59c-1.74,1.17-3.6.94-5.25,3.58-8,1.11-12.74,2.89-12.69,4.14A12.44,12.44,0,0,0,286.4,23c-6.34.56-10.76,1.94-13,4.7l2.49,3v6.07a2.47,2.47,0,0,0,2.2,2.48c.87.1,1.81,1,2.49,2.49a2,2,0,0,0,2.21,1.1,4.38,4.38,0,0,1-.83-3.59s2.88-.72,3.86-.83c4.39-.46,6.07,1.93,5,6.07a4.25,4.25,0,0,1-3,2.21l-1.93-1.1c0,1.38,0,1.93-.55,1.65l-2.48-1.65c.82,1.93-.09,3.91.82,6.34a5.11,5.11,0,0,0,3,2.76c-.12-.88-.71-1.62,0-2.76.95-1.53,4-1.84,5.52-1.1,1.65.82,1.93,3.59.82,5.24l-.82.83c-1.11,1.1-3.59,1.1-8,0A21.19,21.19,0,0,0,274,56.14l3.31,2.21a19.2,19.2,0,0,1-14.9-6.07v3.86a3.05,3.05,0,0,1-1.62-.47c-3.24-2.19-4.95-10.35-6.66-13.87s-3.58-7.18-3.86-11c-.28-1.66-.24-3.73-1.1-5.24-1.9-3.31-3.87-6.9-6.07-10.21-1.94-2.76-4.69-3-8.56-.83,0,0,5,.62,5,3a6.76,6.76,0,0,0-.55,4.69,7.41,7.41,0,0,0-4.42-2.76,16.63,16.63,0,0,1-5-1.38c-2.48-1.1-4.41,0-5.52,3.31a5.56,5.56,0,0,1,5.8.83c-.28,3.31,0,5.52,1.37,6.34,0,0-3.48,1.73-4.69,2.21-2.43,1-4.13,3.31-3.58,5.79a9,9,0,0,1,3-1.65c2.26-.43,9.11,1.1,9.11,1.1,2.2.55,5.68,4.1,6.34,7.73.51,2.73.55,7.77,1,11.56.5,4.66,1.69,8.66,7,15.2a10.69,10.69,0,0,0,3,3,10.43,10.43,0,0,1-3.31,1.11c-.21,0-.83,0-.83,0h-.55a21.14,21.14,0,0,1-4.69-.56c-4.32-1-6.25.36-13.24-3A42.34,42.34,0,0,1,226.26,65a3.5,3.5,0,0,0-2.49-1.66c-.41-.05-1.65,0-1.65,0l-3.86-.82c-1.93-.28-2.81.33-3.42,1.29s-.45,3.4-.45,3.4c3.4-2.44,6.07-.83,7.73,4.69.17.52.06.84-.28.82-2.2,0-3.52.58-3.86,1.38-.23.57-1.1,2.21-1.1,2.21a13.86,13.86,0,0,0-2,2c-1,1.48-1.53,3.9,3.11,6.33-.55-3,0-4.42,1.66-4.42l2.76-.27a18.38,18.38,0,0,1,2.48-.28,8.37,8.37,0,0,1,1.1.28s-.21.2-.27.27c-1,1.27-.83,3.31-.55,4.69a31.93,31.93,0,0,0,0,3.59c.27,2,2.48,3.31,4.41,3.59-.83-1.66-1.7-3.5-.59-5.17a7.09,7.09,0,0,1,4.17-3.11c2.1-.52,4.28-.08,8.21,2.74,5.26,3.76,6.82,2.31,9.73,5.54A9.75,9.75,0,0,0,254,94.89c0-1.33.26-2.39.26-3.5,2.2,3.31,4.25,6.14,7.56,8.34l9.65,5.52a18.55,18.55,0,0,1,7.18,6.62,77.19,77.19,0,0,0-13.8-2.76c-3-.27-5.84.4-7,4.47a83.57,83.57,0,0,1-4.12,12.16c-2.63,5.79-8.62,3.88-11.52,3.51a17,17,0,0,1-5.39-1.41,9.47,9.47,0,0,1-.68-3.55,11.41,11.41,0,0,0-1.1-6.07,4.29,4.29,0,0,0-3-2.21s-3.29-.91-4.41-1.1a5.61,5.61,0,0,0-6.35,3.86v.55c2.21-1.38,4.14-1.66,5.24-1.1.83.55,1.11,1.65.83,3.31a10,10,0,0,0-8,1.1,4.06,4.06,0,0,0-1.65,4.69,5.18,5.18,0,0,1,2.48-1.38,2.41,2.41,0,0,1,2.21.55l4.13,4.69s-1.88,1.21-2.48,1.66c-1.17.88-5.36,5.62-.89,8.41a4.47,4.47,0,0,1,1.46-2.2,3,3,0,0,1,1.91-.42,11.67,11.67,0,0,0,6.07-.82c1.93,4.41,3.59,6.89,5.52,7.17.58-5.76,6.9-3,6.9-3a14,14,0,0,1,2,1.34,6.33,6.33,0,0,0,2.66.87,4.87,4.87,0,0,1-1.2-1.81c0-.07-.16-.65-.16-.65a22.93,22.93,0,0,0,7.43,1.91v-2.48A18.27,18.27,0,0,0,261,143.6s-2-3.32-.83-4.69,3-3.59,3-3.59a10.38,10.38,0,0,0,1.1.28c3.93.36,4.69-7.45,4.69-7.45a18,18,0,0,1,8,4.69l1.38-.55,1.66,1.93c.55.83,1.1.83,1.93,0a10.3,10.3,0,0,0,3.86,3.59s-.85-3.37,2.48-4.14c0,0-.42,1.14-.53,1.54a5.64,5.64,0,0,0-.26,1.88l1.62-1.49c0,2.48-.05,5.09-1.38,7.17-1.9,3-4.06,6-1.38,9.66.73,1,1.76,1.22,2.76,3,.81,1.47,1.11,3.31,2.48,4.14a9.89,9.89,0,0,0,1.38-3l4.14,3.58.83-4.41s9.23-2.76,12.41-3c4.14-.36,8.28-.27,12.14-1.38a21.57,21.57,0,0,0,.83,10.21c-2.76,1.93-6.67,2.35-9.36.39-3.32-2.41-4.48-3.9-7.47-3.15-5.84-1-6.16,2.11-6.16,2.11,1.11-.55,2.41.43,3.52.71-.11,2.84,1.26,3,3.47,4.08l-2.76,2.76c-2.76,1.1-3.86,3.31-2.76,6.62l2.21-2.21a4.79,4.79,0,0,1,3.31-.55l2.21.55,2.2.28s-1,4.31-1.4,6.1a10.65,10.65,0,0,0,.53,5.51,21.15,21.15,0,0,1,2.74-2.52,14.12,14.12,0,0,1,3.37-1.64c2.75-1.16,3.59-3,3.87-5.52.15-1.36.57-2.54,4.14-3.59a47.52,47.52,0,0,1,8.82-.55c-1.37-1.1-1.65-3.58-1.1-7.72.53-.35,3.34,2.71,3.34,2.71.28-1.38,1.08-2.16.8-3.82a2.79,2.79,0,0,0-1.08-1.54l2,1.14a3.88,3.88,0,0,0-.6-3.74l1.93,1.66a6.05,6.05,0,0,0-.28-3.31c-.34-1.06-1.29-3.09-1.65-4.14a17.87,17.87,0,0,1-.56-2.21c-.47-2.73-1.22-5.64-3-7.72-2.05-2.36-5.74-4.24-8.94-3.77a121.69,121.69,0,0,1-12.3.46l3.58-4.42,7.73.28c10.48,0,16.83-3.86,18.76-11.59,1.1-6.34-.43-13.74-5.24-21.79-3.07-5.12-5.63-10.47-6.35-16.28a14.26,14.26,0,0,1,6.07-13.8c5.51-3.86,9.93-2.75,14.07,1.66-3.31,1.66-6.09,3.81-6.62,8.28a9.41,9.41,0,0,0,.83,5.24,11.41,11.41,0,0,1,1.93-3,41.88,41.88,0,0,0,0,5s.32,6.61,6.9,7.73a11.37,11.37,0,0,1-2.21-5.52c-.19-3.35,1.75-6.76,2.76-9.93,2-6.4.22-11.23-4.42-14.08"/><path d="M11.31,112.82v-38H23.42a23.16,23.16,0,0,1,6,.69,11.74,11.74,0,0,1,4.16,2A7.77,7.77,0,0,1,36,80.61a10.55,10.55,0,0,1,.78,4.15,8.4,8.4,0,0,1-.44,2.7A7.79,7.79,0,0,1,35,89.87a9.17,9.17,0,0,1-2.23,2,12.45,12.45,0,0,1-3.14,1.43,11.68,11.68,0,0,1,6.28,3A7.81,7.81,0,0,1,38.07,102a10.52,10.52,0,0,1-.89,4.4,9.48,9.48,0,0,1-2.59,3.42A12.2,12.2,0,0,1,30.4,112a18.84,18.84,0,0,1-5.66.78Zm5.14-21h6.78A13.19,13.19,0,0,0,27,91.38a7.47,7.47,0,0,0,2.63-1.32,5.16,5.16,0,0,0,1.55-2,6.75,6.75,0,0,0,.51-2.64,5.82,5.82,0,0,0-2-4.9c-1.34-1-3.43-1.57-6.25-1.57h-7Zm0,3.66v13.22h8.21a12.68,12.68,0,0,0,3.78-.5,7.12,7.12,0,0,0,2.6-1.42,5.39,5.39,0,0,0,1.49-2.17,7.75,7.75,0,0,0,.48-2.77,5.69,5.69,0,0,0-2.08-4.65c-1.39-1.14-3.48-1.71-6.29-1.71Z"/><path d="M77.58,112.82h-4a1.69,1.69,0,0,1-1.11-.34,2,2,0,0,1-.64-.88l-3.55-9.17h-17l-3.55,9.17a2.15,2.15,0,0,1-.64.85,1.67,1.67,0,0,1-1.11.37H42l15.19-38H62.4ZM52.7,98.72H66.88l-6-15.44a30.89,30.89,0,0,1-1.13-3.58c-.2.72-.39,1.39-.58,2s-.36,1.14-.54,1.6Z"/><path d="M102.57,80.78a1.94,1.94,0,0,1-.5.6,1.15,1.15,0,0,1-.69.2,1.85,1.85,0,0,1-1-.45,17.19,17.19,0,0,0-1.51-1,12.31,12.31,0,0,0-2.2-1,10.65,10.65,0,0,0-6.16,0,6.5,6.5,0,0,0-2.21,1.26,5.24,5.24,0,0,0-1.34,1.87,6,6,0,0,0-.45,2.32,4.31,4.31,0,0,0,.78,2.64A6.88,6.88,0,0,0,89.31,89a15.94,15.94,0,0,0,2.91,1.28l3.34,1.13c1.14.39,2.26.82,3.34,1.31a11.94,11.94,0,0,1,2.92,1.84,8.41,8.41,0,0,1,2.06,2.73,9.11,9.11,0,0,1,.78,4,12.9,12.9,0,0,1-.84,4.67,10.83,10.83,0,0,1-2.48,3.81,11.76,11.76,0,0,1-4,2.54,14.68,14.68,0,0,1-5.39.93,16.49,16.49,0,0,1-6.72-1.34,15.64,15.64,0,0,1-5.18-3.62l1.48-2.44a2,2,0,0,1,.52-.49,1.22,1.22,0,0,1,.67-.2,2.13,2.13,0,0,1,1.28.6,20.8,20.8,0,0,0,1.78,1.31,13.4,13.4,0,0,0,2.6,1.31,10.21,10.21,0,0,0,3.72.6,9.92,9.92,0,0,0,3.26-.5,6.93,6.93,0,0,0,2.43-1.42,6.12,6.12,0,0,0,1.52-2.19,7.17,7.17,0,0,0,.53-2.83,4.75,4.75,0,0,0-.78-2.82,6.44,6.44,0,0,0-2-1.85,15.16,15.16,0,0,0-2.9-1.26l-3.34-1.06a34.2,34.2,0,0,1-3.34-1.25,10.74,10.74,0,0,1-2.9-1.86,8.5,8.5,0,0,1-2.06-2.85,10.16,10.16,0,0,1-.78-4.22,10.1,10.1,0,0,1,3-7.24,10.94,10.94,0,0,1,3.67-2.33,13.5,13.5,0,0,1,5-.88,16.09,16.09,0,0,1,5.8,1,13.28,13.28,0,0,1,4.59,2.92Z"/><path d="M131.4,80.78a1.81,1.81,0,0,1-.5.6,1.15,1.15,0,0,1-.69.2,1.85,1.85,0,0,1-1.05-.45,17.19,17.19,0,0,0-1.51-1,12.31,12.31,0,0,0-2.2-1,10.65,10.65,0,0,0-6.16,0,6.5,6.5,0,0,0-2.21,1.26,5.24,5.24,0,0,0-1.34,1.87,6,6,0,0,0-.45,2.32,4.31,4.31,0,0,0,.78,2.64A6.88,6.88,0,0,0,118.14,89a16,16,0,0,0,2.92,1.28l3.33,1.13c1.14.39,2.26.82,3.34,1.31a11.94,11.94,0,0,1,2.92,1.84,8.44,8.44,0,0,1,2.07,2.73,9.11,9.11,0,0,1,.78,4,12.91,12.91,0,0,1-.85,4.67,10.83,10.83,0,0,1-2.48,3.81,11.76,11.76,0,0,1-4,2.54,14.68,14.68,0,0,1-5.39.93,16.49,16.49,0,0,1-6.72-1.34,15.74,15.74,0,0,1-5.18-3.62l1.48-2.44a2.21,2.21,0,0,1,.52-.49,1.23,1.23,0,0,1,.68-.2,2.11,2.11,0,0,1,1.27.6,19.62,19.62,0,0,0,1.79,1.31,13,13,0,0,0,2.59,1.31,10.23,10.23,0,0,0,3.73.6,10,10,0,0,0,3.26-.5,7,7,0,0,0,2.42-1.42,6.12,6.12,0,0,0,1.52-2.19,7.17,7.17,0,0,0,.53-2.83,4.75,4.75,0,0,0-.78-2.82,6.44,6.44,0,0,0-2-1.85,15.16,15.16,0,0,0-2.9-1.26l-3.34-1.06a35.19,35.19,0,0,1-3.34-1.25,10.74,10.74,0,0,1-2.9-1.86,8.5,8.5,0,0,1-2.06-2.85,10.16,10.16,0,0,1-.78-4.22,10.1,10.1,0,0,1,3-7.24,10.94,10.94,0,0,1,3.67-2.33,13.5,13.5,0,0,1,5-.88,16.14,16.14,0,0,1,5.81,1,13.33,13.33,0,0,1,4.58,2.92Z"/><path d="M164.18,74.85V79H146V91.65h14.76v4H146v13h18.23v4.18h-23.4v-38Z"/><path d="M198.18,74.85v4.32H185.91v33.65h-5.14V79.17H168.45V74.85Z"/><path d="M386.53,108.61a24.39,24.39,0,0,0,2.82-.15,17.5,17.5,0,0,0,2.43-.44,14.9,14.9,0,0,0,2.14-.7c.67-.27,1.35-.59,2-.94V98h-5.89a1.12,1.12,0,0,1-.8-.29,1,1,0,0,1-.31-.72V94.09H400.6v14.57a20.71,20.71,0,0,1-3,1.8,21.08,21.08,0,0,1-3.31,1.29,25,25,0,0,1-3.78.77,36.92,36.92,0,0,1-4.37.25,19.64,19.64,0,0,1-7.58-1.42,17.41,17.41,0,0,1-5.94-4,18.11,18.11,0,0,1-3.88-6.14,21.47,21.47,0,0,1-1.39-7.87,22,22,0,0,1,1.37-7.92,17,17,0,0,1,10-10.1,21.88,21.88,0,0,1,8-1.4,24.9,24.9,0,0,1,4.19.33,19.82,19.82,0,0,1,3.59,1,16.76,16.76,0,0,1,3.06,1.51,19,19,0,0,1,2.63,2l-1.46,2.33a1.34,1.34,0,0,1-1.17.72,1.89,1.89,0,0,1-.92-.29c-.45-.25-.94-.55-1.49-.9a11.59,11.59,0,0,0-2-1,15.88,15.88,0,0,0-2.78-.84,18.34,18.34,0,0,0-3.8-.34,15.58,15.58,0,0,0-5.81,1,12.3,12.3,0,0,0-4.42,3,13.18,13.18,0,0,0-2.81,4.72,18.31,18.31,0,0,0-1,6.21,18.9,18.9,0,0,0,1,6.43,13.68,13.68,0,0,0,2.87,4.78,12.46,12.46,0,0,0,4.4,3A14.8,14.8,0,0,0,386.53,108.61Z"/><path d="M444.51,93.37a22,22,0,0,1-1.35,7.83,17.87,17.87,0,0,1-3.82,6.14,16.93,16.93,0,0,1-5.92,4,21.26,21.26,0,0,1-15.28,0,17,17,0,0,1-5.9-4,17.87,17.87,0,0,1-3.82-6.14,23.38,23.38,0,0,1,0-15.66,17.91,17.91,0,0,1,3.82-6.15,17.11,17.11,0,0,1,5.9-4,21.12,21.12,0,0,1,15.28,0,17,17,0,0,1,5.92,4,17.91,17.91,0,0,1,3.82,6.15A22,22,0,0,1,444.51,93.37Zm-5.27,0a19.17,19.17,0,0,0-1-6.28,13.06,13.06,0,0,0-2.7-4.7,11.6,11.6,0,0,0-4.24-3,15.47,15.47,0,0,0-11.1,0,11.72,11.72,0,0,0-4.25,3,13,13,0,0,0-2.72,4.7,21,21,0,0,0,0,12.55,13.08,13.08,0,0,0,2.72,4.69,11.67,11.67,0,0,0,4.25,2.94,15.61,15.61,0,0,0,11.1,0,11.55,11.55,0,0,0,4.24-2.94,13.19,13.19,0,0,0,2.7-4.69A19.11,19.11,0,0,0,439.24,93.37Z"/><path d="M457.42,108h16.43v4.32H452.28v-38h5.14Z"/><path d="M513.17,93.37a21.39,21.39,0,0,1-1.35,7.76A16.83,16.83,0,0,1,502.1,111a20.61,20.61,0,0,1-7.64,1.36h-14.2v-38h14.2a20.61,20.61,0,0,1,7.64,1.36A16.91,16.91,0,0,1,508,79.6a17.22,17.22,0,0,1,3.82,6A21.39,21.39,0,0,1,513.17,93.37Zm-5.27,0a19.17,19.17,0,0,0-.95-6.25,13.18,13.18,0,0,0-2.71-4.67A11.48,11.48,0,0,0,500,79.54a14.65,14.65,0,0,0-5.54-1h-9v29.65h9a14.65,14.65,0,0,0,5.54-1,11.48,11.48,0,0,0,4.24-2.91A13,13,0,0,0,507,99.62,19.17,19.17,0,0,0,507.9,93.37Z"/></g></g></svg>